<?xml version="1.0" encoding="UTF-8"?>
<svg id="Layer_1" xmlns="http://www.w3.org/2000/svg" version="1.1" xmlns:xlink="http://www.w3.org/1999/xlink" viewBox="0 0 1253 636">
  <!-- Generator: Adobe Illustrator 29.8.7, SVG Export Plug-In . SVG Version: 2.1.1 Build 1)  -->
  <defs>
    <style>
      .st0 {
        mask: url(#mask-1);
      }

      .st1 {
        fill: #012069;
      }

      .st2 {
        fill: #fff;
      }

      .st3 {
        mask: url(#mask);
      }

      .st4 {
        fill: none;
      }

      .st5 {
        fill: #407ec9;
      }

      .st6 {
        clip-path: url(#clippath);
      }
    </style>
    <mask id="mask" x=".6" y="140.7" width="2350" height="321.8" maskUnits="userSpaceOnUse">
      <g id="path-2-inside-1_38_204">
        <path class="st2" d="M.6,140.7h2350v286H.6V140.7Z"/>
      </g>
    </mask>
    <clipPath id="clippath">
      <rect class="st4" x="43.5" y="196.9" width="128.7" height="105"/>
    </clipPath>
    <mask id="mask-1" x="36.3" y="196.9" width="2023.5" height="2633.5" maskUnits="userSpaceOnUse">
      <g id="mask0_38_204">
        <g class="st6">
          <g>
            <path d="M155.4,254.2h-.3s-.8-2.1-.8-2.1c.4-.5.5-1.2,0-1.5-.7-.3-2.8-2.6-3.4-1.1-.3,0-1.9.2-2,.5-.8-1.3-1.5-2.6-2-4,.3-1.7,4.9-3.8,4.9-3.8,0,0-1.3-1.8-1.8-2.9-.2.5-.4.3-.9.5,2.5-4.4,3-10.3-.3-14.5-.3-.7-.2-1.7-.5-2.4-.6-.8-1-2.2-2-2.4,0,1.3-.1,2.6.5,3.8.7.8-.9,1.6-1.4.9,1-.1,1.1-.3.8-.8-4.2-.9-6.5,2-10.5,2.4-.4,0-.7.1-.9.4-2.5,3.3,3,1,3.5,3.2-.9.8-1,.3-1.9,0-1.2,0-2.4.4-.9,1.5-.9,1.5-.9,2-2.8,2.1.8,1.2.7,2.8.9,4.2-1.4.2-2.3.9-2.3,2.3-.6.1-1.3-.2-1.7.5-.9-.7-1.9-.8-2.9-.9-.5-.4-1.7-1.2-3-1.9l.7-2.7,2.1-1.3-1.1-2.2c2.5-8.4,3.3-8.8,4.5-9v-.2c0,0-4.5-1.4-4.5-1.4v.3c1.1.8,1.4,2.2.9,3.8-1.2-.5-1.9-1.7-1.8-2.7h-.3c0,0-1.5,4.9-1.5,4.9h.2c.6-.8,1.6-1.3,2.8-1.1-1.4,4.4-7.7,3-6.6-.7.8-1.5,2.3-.6,1.6,1.1,3.6-1.2,1.5-6.3-1.6-3.3,1-2,1.6-3.6.3-5.6-1.6,1-2.1,2.9-1.7,5.4-2-4.5-5.5.1-2.7,2.5-.5-3.4,3.7-1.1.8,1.6-2.7,1.9-6-.3-6.1-3.6,1.6.1,2.7,1.1,2.9,2.2h.3l.2-5.7h-.4c-.2,1.1-1.5,2.1-3.1,2.2.1-1.8,1.1-3.1,2.4-3.4v-.3h-6.7v.3c1.3.2,2.3,1.6,2.5,3.4-1.6,0-2.9-1-3.1-2.2h-.4s.2,5.7.2,5.7h.3c.2-1.2,1.4-2.1,2.9-2.2,0,3.3-3.4,5.5-6.1,3.6-2.8-2.7,1.4-4.9.8-1.6,2.8-2.4-.7-7-2.7-2.5.3-2.5-.1-4.4-1.7-5.4-1.3,2-.7,3.6.3,5.6-3-3-5.1,2-1.6,3.3-.7-1.6.8-2.6,1.6-1.1,1.1,3.8-5.2,5.1-6.6.7,1.2-.2,2.2.3,2.8,1.1h.2c0,0-1.5-5.1-1.5-5.1h-.3c.1,1.1-.5,2.2-1.8,2.8-.5-1.6-.2-3,1-3.8v-.3c0,0-4.6,1.4-4.6,1.4v.2c1.3.2,2.1.6,4.6,9l-1.1,2.2,2.1,1.3.7,2.4h0s0,0,0,0c-6.1,2.8-4.7,4.7-9.4,4.2-.4,1-.8,1.9-1.8,2.6-.2-1.4-.8-2.6-1.7-3.7-.4-.5-1,0-1.7.1-1.3,2.7-2.2.3-4.4,1.7,0,1.3.3,2.6,1,3.7-1.5,0-2.9-.5-4.2-1.3-5,5.5-10.2,10.8-14.5,16.9-2.3,3-8.4,1.2-6.8-2.9.7-3,5.1-2.4,4.8.6,2.2-2.4.8-4.7-2.5-4.2,3-1.3,4.9,1.2,7.6-2.2-2.1,0-3.9-.6-6-.1,2.6-1.6,6.3.8,8.5-3.6-2,.2-3.7,1-5.8,1.3,12.2-11.5.5-12.1,2-17.1-1,.8-1.5,1.6-1.1,2.7-2.7-1.1-6.8-.8-7.9-4.1-.3,4.7,1.8,4.3,5.4,5.3-1.6-.2-3.3-.2-4.8-.8.3,2.1,1.9,2.5,3.8,2.3-1.9,1-1.4,3.6.5,4.5-1.2-6.8,9-4.4,4.4,1.8-2.2,3.2-5.3,5.6-7.9,8.4-.5-.9-1-1.7-2.2-1.6,2,2.3-.3,4.8-.8,7.2-.8,2.9,1.8,5.4,4.6,5.8-1.1,1.3-1.2,2.5-.3,3.5.8-4.3,7.1-3.3,7.7-8,.1-.5.4-1,1-1.2-2.8,3.2,4,9.9-2.4,10.7-.9,0-1.1,1-.6,1.7-2.6-.1-3.4.9-3.8,3.3l3.3-.9c-1.2,3-3.8-.2-3.3,5.1,1.1-.5,2.1-1,3.1-1.6.9,3-4.8,1.7-.5,6.5.4-1.2,1.1-2.2,2-3.1-.5,1.5-.4,3.2,1.3,3.9l.2-1.1h.1c.2,1,.3,2.4,1.3,2.9.3.1.5.3.6.6.2.6.7.7,1.2.8.6.1.8-.6,1.3-.9.1.8,1.1.9,1.5,1.6.3-3.9-4.9-2.5-3.7-5,.5,1.6,1.9,1.2,3,1.9.4.6,1.4,1.2,1.9.3l1.3,1c-1-4.6-3.4-1.8-4.9-4.2,1.1,0,2.2,1.6,3.3.5.6.6,1.1,1.4,1.6,2.1.2-1.3-.4-2.7-1.5-3.4-1.3-.8-3.1.6-4.2-1-1.5-1.9-1.5-4.5-.7-6.7.7-1.7,2.8-2.3,3.7-3.9-.3,1.4-.1,3.8,1.5,4.3-.4-2.6,1.5-5,1.9-7.5.5-.6.5-1.1,0-1.8-.8-1.3-1-2.9-1.9-4.1-1.4-1.9-3.1-2-.3-4-1.7,2.6-.3,1.6,1.2,4.1.3-.8,1.5-1.9,0-1.9-2.5-1.2,3.2-4.3,4.5-4.4,1.3-.1,3,0,4-1.2-.6-1.1-1.2-1.3-.1-2.5-.7-.4-1.3-.9-1.4-1.8l-1.9.6c.6-.7,2.4-2.1,2.6-.5,0,.9.9,1,1.6,1.2-.5.7-1.3,1.4-.6,2.3.5.6.8,1.6,1.7,1.7l.6-2.4c1.8,1.9-1.8,2.9,3.1,4.6-.2-1-.3-2-.2-3,2.4,2-1,3.2,4.4,3.8-.6-.7-.7-1.5-1-2.3.9.2,1.6,1,2.2,1.7.6.9,1,1.3,2.3.5,0,.2,0,.4.2.4.6.4.3,1,.3,1.5h.2c.8-.8.8-1.6.6-2.6-.5-1.8-2.7-.4-3.5-2.2,1,.7,2.1,1.1,3.2.5.6.6.9,1,1.2,1.9.5-1.9,0-3.9-2.1-3.3-.6.2-.9.2-1.5-.4.9.3,1.6-.2,2.2-.6.1.2.2.4.3.4.6,0,.9.4,1.3.8.2-1.6-1.5-3-3.1-2.6-.4,2-2.1.9-3.5.6-2.1-1.2-3.2-3.6-5.1-5.1,0-1.1-.3-2.1-1.1-2.9-.8-.8-1.8-1.1-2.9-1,2.1-.9,4.5.9,4.7,3,0,.9.6,1.4,1.2,2.1,7-13.9,29.5-17.5,42.5-8.7,1.1,1,2.3,1.8,3.4,2.9.5-1.3.2-2.9,2.2-2.1l.4-.2c-.2-.5,0-1.1.2-1.6.3-.5.8-.8,1.4-.8v.9c-.5,0-.9.6-.8,1.1.4,0,.8.4.5.8.4.2.9.1,1.2-.2h1c-.5,1.2-2,1.5-2.9.7.2.2-.6,2.6-.6,2.9,0,.3-.4.6-.8.6l.4.6c.6-.3,1.4-.3,1.3-1.1.1-.5-.2-2.5.5-2.3.3.8-.2,1.7.4,2.5,1.9-.5,1.1-2.1,3.3-2.6.9,0,2.8-.5,3.3.4-2-.5-4.5,0-5,2.3-2.1.5-3.8,1.9-6,1.9-1.8,0-2.2,2.2-2.3,3.6-.3,1.6-.4,3.3-1.1,4.8-.4.6,0,1.2.1,1.8.7.4,1.1,2.6,1.2,3.5,0,1.5,2.6,2,3.6,2.9.3-1.9-3.3-1.3-2.8-4,.6,1.7,2,2.1,3.6,2.9-.5-1.8-.6-4.7-3.1-4.3-1-1.3.4-1.4,0-2.9.7.2,1,.5,1.2.9l-.7-.2c0,1.1,1.1,1.4,1.8,2.1-.1-1.8-.3-3-2-3.8-1-.9.1-2.9,0-4.1,0-.4,2.3-1.5,2.6-1.4,1.7.2,3.5,0,5.2.4,1.7.5.2-3,2.9-1.2-1.9-.6-.8,1.5-2.2,1.6-1,0-1.8,0-2.8-.1,3.5,7.7,11.3,5.5,13.5,12.4,1.8-1.6.6-1.5,0-3.2,4.1,2.7-3.8,5.8-.8,10.5-.2-.5,1.6-2.7,1.9-3.2.3-.5.9-.5,1.3-.2l.6-1.2c-1.1-.6.9-3.1,1-3.8.2-.4.7-.6,1-.5l.5-1.5c-1-.3-.3-2.7-.3-3.4-1.4-1.3-2.6-2.9-3.8-4.4h.7c0,.2,0,.6.3.8.5.2,2.4,2,3,1.6l.3.8c-.5.1-.6.8-.6,1.2.3.2.5.4.8.6,0-.2,0-.9.2-1,.2.3.6.3.9,0,.2.1,0,1.7,0,1.9.3.3.5.6.8.9-.1-.7.8-3.5-.5-3.7h0ZM135,228.1h.8c-.5-.4,0-.9.4-.6,1,.8-1,2.1-1.2.6ZM94.4,235.4l-2.1-1.3,1.1-2.3,3.1,1.1-2.1,2.5h0ZM101.4,233.7c-3.3.7-4-3-.7-3.6,3.3-.7,4,3,.7,3.6ZM109,233.4l-3.3-2.3,3.3-2.3,3.3,2.3-3.3,2.3ZM119.4,232.4c-.4,2.3-5.7,1.3-5.2-1,.4-2.3,5.7-1.3,5.1,1h0ZM121.4,232.9l3.1-1.1,1.1,2.2-2.1,1.3-2.1-2.5ZM146.8,222.2c.6.7.9,1.4.9,2.2-.6-.2-.8-.8-.9-2.2ZM144,226.5c-.8.5-1.5,1.4-2.4.3h-.6c1.2-1.8,1.1-1.5,2.9-.3h0ZM137.2,233.4c.5.2,1.1.5,1.6,0-.5,0-.7-.4-.8-.7-.3-1.8,2.7-1.2,3.8-1,2.8,1.7,7.4.6,5.8-3.3,1.3.8.8,2.9-.1,3.8-2.5,1.4-5,.3-7.5,3-.4-1.2-1.9-1.2-2.4.2h-1.1c0-.6.5-1.2.7-1.8ZM146.8,245l-.3.4c-2.1-2.4-9.3-5.1-12.4-4.7v-.5c0,0,0,0,0,0l1.2-.7-1-.8c0-.1-.6-4.1-.6-4.1h1.8c-.6,0-.6.7-.7,1.3.1,0,.2.2.2.3.4-.2.7-.9.7-.9l.2,2.4c.1-.4-.5-.7-.8-.8,0,0,0,.2-.1.2.5,1.6,2.8,1.7,2.9.3,0-.7-.9-.6-.8.2-1.3-1,.5-2.6,1.2-1,0-.9,0-1.5.7-1.9.5.6.4,1.2-.1,2.1,1.6-1.4,2.2,1,.7,1.4.7-1.3-1.3-.9-.6.5.7,1.1,2.4.9,3-.2,0,0,0-.1,0-.2-.6-.1-1.5.4-1.5.4l.8-2.2c-.3.5.3.9.8,1.2.1,0,.2-.1.3-.2,0-.6-.5-1.5-.5-1.5l2.7,1c-.5-.3-1.1.3-1.4.8,0,.1.1.2.1.3.6.1,1.5-.4,1.5-.4l-1,2.1c.3-.5-.3-.9-.8-1.2,0,0-.1,0-.2.1-.2.6,0,1.2.4,1.6.4.4,1,.6,1.6.5,1.5-.5.3-2.1-.1-.7-.8-1.2,1.4-2.6,1.5-.5.3-1,.6-1.5,1.4-1.6.2.8-.1,1.2-.8,1.9,1.7-.7,1.8,1.6.1,1.5.6-.5,0-1.1-.5-.6-1,1,.8,2.4,2.3,1.7,0,0,0-.2,0-.3-.4-.2-1.2-.3-1.2-.3l1.8-1.3c-.4.2-.2.8,0,1.2.1,0,.3,0,.4,0,.4-.4.4-1.4.4-1.4l1.3,1.6c-.4-.6-3.3,1.5-3.8,1.9h-.9c0-.1.4,1.2.4,1.2h0ZM153.9,251.6c-.4,0-.8.3-.6.8,0,0,0,0-.1,0l-1.9-1.3c-.1,0-.2-.3,0-.4.4,0,.8-.2.7-.6.1.2,2.2,1.3,2,1.6Z"/>
            <path d="M130.8,242.4c-.1-.2-.2-.4,0-.6-.2,0-.6,2.1-.7,2.2.2.1.3.3.4.4.2,0,.5.2.6-.1l.5-1.9c-.2.2-.6.2-.8,0h0ZM102,295.7c-5.4-2.1-9.3,3.1-4.9,3.9-4.8.2-3.9-6.5-5.9-6.1,1.8,1.9,1.8,5.4,3.4,6.3,3.3,1.4,6.6,1.6,10.1,1.4-1.8-1.5-2.2-3.5-2.7-5.5ZM118.5,299.6c4.4-.9.5-6.1-4.9-3.9-.5,2.1-.9,4-2.7,5.5,3.5.2,6.9,0,10.1-1.4,1.6-1,1.6-4.4,3.4-6.3-2-.4-1.1,6.3-5.9,6.1ZM153.9,257.7c0,.1,0,.2.1.3.2-.2.6-.1.8.1.3,0,.2-.9.2-1.2-.3-.3-.7-.7-1-1v1.7h-.2ZM152.6,264.1c0-.2,1.4-2.5,1-2.7-.3,0-.5,0-.6-.3-.3-.1-1.2,2.3-1.3,2.4.4-.3,1,.2.8.7,0,0,0,0,.1-.1h0Z"/>
            <path d="M168,253.8c-1.1.3-1.6,1.3-2,2.3-2.8-4.4-8.2-7.4-9.1-12.8.6-4.3,6.4-3.3,5.2,1.2,3-1.6,1.5-4.5-1.3-5.1,3.1.2,4.7,2.8,6.8-1.5-1.8.6-4.5.2-5.5,0,3.8-.5,5.9-.5,5.7-5.1-1.3,2.8-4.9,2.9-7.5,3.8.2-1.2-.2-2-1.2-2.4,1,6.8-12,4.6,2.3,19.3-1.8-1-3.8-.6-5.5-1.7,1.3,3.5,3.6,2.9,6.5,4.2-3.2,0-4.1,3-1.8,4.5-.6-2.3,2.7-4,4.3-2.1,3.7,4.7-3.1,11.3-9.2-.6,0,.7-.4,1.2-1.1,1.1l-.7,1.9c1.4.5-.7,3.2-.9,3.9-.2.5-.8.7-1.2.4l-.7,1.4c.8.8-1.4,2.9-1.7,3.6-.3.4-.7.5-1.1.3l-.2.5h0c1.5,1.9,2.2,3.3,1.8,5.2,1.2-1.1,1.8-4,.8-5.6,1.1,1.2,2.7,2,3.4,3.5.7,2.6,0,5.4-1.7,7.5-.8.8-.6,1.2-.7,2.1-.5,1.5-2.3,1.6-3,2.9-.5,1.1-1.3,2.1-1.6,3.2,2.1-.3,1.7-3.2,3.7-3.8-.8,1.2-1.6,2.3-2.1,3.7,1.6-.4,4.7-.9,4.2-3.2-.4-1.1.7-1.8.6-2.8,1.3-.5,1-1,1.6-2,.3.6.3,1.1.3,1.8l-.4-.8c-.9,1.2-.2,2.5-.3,3.8,4.5-4-1.5-4,3.2-12.9,1.1-1.8-3.1-1.6-3.4-5.6-.3-1.7,1.3-3.2,1.6-4.8,1.8,3.2,8.2,3.1,7.3,7.2,1.3-1,1.2-2.7.7-4,6.5-2.3,1.4-8.3,3.5-12.5Z"/>
            <path d="M148.6,269.2c.1,0,.3.2.3.3.1,0,.2,0,.3-.1,0-.2,1.7-2.3,1.5-2.4-.2,0-.3-.2-.4-.4-.2-.1-.4-.2-.5,0,0,.3-1.9,2.3-1.4,2.5,0,0,.2,0,.2,0ZM147.6,269.6h0c0,.1,0,0,0,0h-.1c0,0,0,0,0,0ZM84.2,278.7c.7.1,1.4.2,2,0l-3-5c-1.8,2.1-4.8.8-6.7-.5-1.6-1.1,1.8-2.9.7-6.7,1.5,2.4-1.2,4.5,3,5.8-1.2-1.8-1.1-4.1-1.5-6.2,0-.4-.2-.7,0-1.1.1-.5.2-1.2-.5-1.2-4.7-2.7-3.8-1.4-8.4-2-1.1,2,1.3,3.7.9,5.6-.3.9,1.1.9,1.1,1.8.3,1.4.2,3.4-1.5,4-.8.5-.2,1.5.6,1.8-1.5,2.6-.3,3,1.9,4.3,0-1,0-1.9.5-2.7,3.1,2-1.5,2.4,4.6,4.8-.6-1-.6-2.1-.7-3.1l1.7.4c.7,2.8,2.2,3,4.9,2.8-1-.9-1.2-2.2-1.9-3.2.8.3,1.6-.3,2.3.3ZM139.2,263.1c-.8.1-1,.5-.9,1.3-.9,2-1,4.4-2.6,6.1,3.4-1,2.7-2.2,3.5-4.8-.2,3.5,0,3.4,1.3,5.8-2.6,1.8-7,.3-8.4,3.9.4.5.9,0,1.5.1-.3.4-.5.9-1,1.3l.3-.8c-1-.3-1.8,1.9-2.5,2.6,7.1-1.4-.8-3.4,13-5,2.5-1.2-2.3-2.9,2.5-6,.4-1.6.7-3.3,1.6-4.8.2-.5-.1-1.2-.6-1.5-2.1,1.5-3.1-.9-7.7,1.9ZM68.1,234.4v-1.4c.1,0-1.5-.3-1.5-.3.6-.5,1.3-.6,2-.4-.5,2.2.4,3.8,2.9,4,.7-1.1,1.4-1.3,2.1-.5-3.2-.3-.8,3,.8,1.9.4-.6,1.8-1.2,1.4-2.1-2.6-1.8-2.4.9-2.9-3.7h-.3c-.2.8-1.1,1.5-1.8.7-.2-.3-.5-.5-.9-.6,1.8-1.4,3.8.6,3.7-2.6,1.9,2.4,2.1-.3,4-.3,0,1.9-.5,1.8-2.2,1.6.5.4,2.6,2.5,1.4,2.7-.5-1.3-1.3-2.5-2.8-2.8-1.2,1.1-.6,2.4-.4,3.7,1-.4,1.9-1,3-.9.4,1.1-1.3,1.6-.4,2.7,1.7.3,3.5.3,2.9-2-.5-.3-1.1-.5-1.6,0,0-.9.9-1.1,1.6-.9,1.5-1.6,1-3.7-.6-5,.4-.6.9-1.1,1.7-1.2-.3.5-.8.8-.9,1.2l1,1.3c.9-.4,1.1-1.8.5-3.2-1.1.3-3,1.2-3,1.2-.9-.4-.5.1-.4.6-3,.5-5.9,1.3-8.3,3.3-.4.3-.6.1-.8-.5-.3-.4-.4.3-.5.5,0,0-1.8.4-2.6,1.1.5.9,1.3,2.3,2.6,1.9h0Z"/>
            <path d="M79.8,233.5c.3,1.3-.1,2.5-1,3.5,1.3,2.4,3.6,4.1,4.6,6.7,2.2-4.1-.2-5.5-3.2-7.7,2,.7,3.9,1.4,5,3.2.2-3.5-1.3-5.3-4.8-5.8h0c1.4-.2,2.9-.2,4.2.7-.4-1.1-1.2-2.7-2.6-2.6.5-1,.5-1.6,0-2.2-.2.7-.7,1.1-1.4,1.1.1,1.1-.2,2.3-.9,3.1ZM68.8,241.6c.4,1,1,2.1,2,2.5-.5-1.9.8-3.6,1.4-5.4,0,4.1-2.3,6.3,3.3,7.7-1.5-2.4-.5-5.3-1.4-7.7-.9-.5-1.9-.6-2.5-1.4-.2-.4-.5-.5-.8-.5-1.1-.2-2-.6-2.6-1.4-.8.2-1.2.2-1.9,0,0,.9.7,1.7,1.7,1.4-.8,1.1-.3,2.2,0,3.3.5-1,1.4-1.9,2.4-2.5-.7,1.2-2.1,2.5-1.5,4.1h0ZM91.4,282.9c.8-.7-.3-1.1-.7-1.6-6.8-6.2-9.3-14.3-8.7-23.3l-.7-.4c-1.2,9.6,2.6,19.2,10.1,25.3h0ZM151.8,231c-.6,1.2,1.2,1.7,1.2,2.9l-1.4-1.1c-.6,2.3,2.1,3,3,4.8,1.1-3.3.5-5.3-2.8-6.6h0ZM77.4,240.8c-1.8.1-1.5-2.1-2.1-3.4l-.9,1,1.1,3.8.8-.6c1.2.9,2.4.3,2.8-1.1.4,0,.7.2,1,0l-1.7-3.5c-.4,0-.7-.4-1.1,0,.4,1.1,1.9,3.3,0,3.8ZM151.5,225.5h0c0,.1-1.7,0-1.7,0,.6,2,3,1,4.5,2-.9-1.6-1.5-3.2-3.4-3.5.2-.9,0-1.9-.6-2.2,0,.8-.3,1.5-1.1,1.8-.4,1.7,1.4,1.6,2.5,1.9ZM151,237.1h-.1c-.4,1.8.8,3.4,1.6,4.9,1.3-2.4,1.3-5.1-.9-7-.7,1.3.3,2.5.6,3.7h-.1c0,0-1.1-1.6-1.1-1.6ZM150.5,227c.8,1.8,2,1.4,2.8,2.6-.7-.2-1.3-.4-1.9-.6,0,1.9,2.4,2.1,3.8,2.9-.2-3.1-1.8-4.3-4.8-4.9ZM143.3,223.8c.8,0,2.1.5,2.8,0,0-2.6-3.3-2.3-5.1-2.4.6,1,1.3,2,2.3,2.3ZM134.1,261.5l-2.1-.2v.9c.5.1.9.2,1.2.3.1,2.2-1.1,2.2-2.7,1.3-.5,2.8,4,2.5,3.6-2.4h0ZM132.5,252.7c-2.5,3-2.5,3.4,1.3,4.7v-.8c-.8-.2-1.6-.5-2.2-.9l1.4-1.7-.4-1.3ZM120.9,241.7h1.1c.4-1.6-.4-1.7-1.5-2.5-.4,1.2-1.5,1.8-2.1,2.8.9,0,1.7-.4,2.1-1.2l.3.8ZM126.7,248.4c.3-1,2.2-3.4,1.2-4.1-.5.3-1.4.2-1.3.9,0,1.1,0,2.1,0,3.2h.1s0,0,0,0ZM145.3,221.3v-.2c-.9-1.5-1.4-1.8-3.2-1.8,0,1.8,1.9,1.8,3.2,2ZM140.5,216.8c0,1.3,1,2,2.8,1.9-.5-1.3-1.4-2-2.8-1.9h0ZM136.3,230c-1.4-.7-2.6.2-4.1-.1.4,2,2.8.5,4.1.1h0ZM139.1,214.8c.4,1.3.9,1.5,2.2,1.4-.4-1.1-1.1-1.5-2.2-1.4h0ZM139.8,214.1c-.5-1.1-.8-1.2-1.9-1.1.5,1.1,1.1,1.5,1.9,1.1ZM133.2,249.6l1,1.7c1.3,0,.2-1.1-.1-1.6-.2-.2-.6-.2-.8-.3h0ZM129.3,251.1c.7-.4,1.4-.7,2-1.2l-.4-.6c-.6.6-2,.8-1.6,1.8h0ZM138.2,212.4c.2-.7-.8-1.6-1.5-1.3,0,.8.9,1.4,1.5,1.3ZM71.1,224.2c.4-.4-.2-.9-.5-.6-.4.3.2.9.5.6ZM71.6,225.2c.4-.3-.2-.9-.5-.6-.4.4.2.9.5.6Z"/>
            <path d="M69.1,220.7h-.9c0,0,.5,1.2.5,1.2l.6-.7h.1c0,0,0,1.6,0,1.6.2,1.3,2.2.5,1.4-.6l-1-1.2s0,0,0-.1h.9c0,.1-.5-1.1-.5-1.1l-.7.6s0,0-.1,0v-1.1c0,0-1.2.4-1.2.4l.7.9s0,0,0,.1ZM66.5,226.7c.6,0,.6-.9,0-.9-.6,0-.6.9,0,.9ZM66.5,227.8c.6,0,.6-.9,0-.9-.6,0-.6.9,0,.9ZM68.3,223.9c.6,0,.6-.9,0-.9-.6,0-.6.9,0,.9h0ZM66.9,225.6c.6,0,.6-.9,0-.9-.6,0-.6.9,0,.9h0ZM72.2,226.7c0-.4.3-1.3.3-1.3l-1.8.7c-.3.3.8.4,1.1.7-.4.1-.8.2-1.3,0l.7,1.4c.2-.6.5-1,.7-1,.8,1.2-1.1,2.4-2,1.4-.2-.4,0-.9.5-.5,0-.9-.8-.9-1.1-.2,0-.9-.2-1.4-1.1-1.7-.2.9,0,1.4.9,1.8-.5,0-1.1.4-.4,1,0-.5.5-.6.7-.2.4,1-.8,1.4-1.8.4.2,0,.5,0,.8,0l-.9-1.2c0,.4,0,.7,0,.9-.2-.2-.3-.4-.4-.9l-.7.6c1,.6,1.8,1.5,2.4,2.5,1.3-1.2,6.3-3.3,8.3-3.3-.2-1.1-.2-2.3,0-3.4h-1c.3.4.4.6.4.9-.3-.1-.5-.4-.7-.6v1.5c.3-.3.5-.5.7-.5,0,1.4-1.2,2-1.6,1,0-.4.3-.7.7-.3,0-.9-.7-.9-1-.5.4-.9.2-1.5-.6-1.9-.5.8-.3,1.4.3,2-.6-.3-1.2.2-.6.9.1-.6.6-.4.7,0,.1,1.3-2.2,1.6-2.4.3.2-.1.7,0,1.2.3l-.4-1.5c-.2.5-.5.7-.9.9h0ZM96,273.4l2.1,1.2c-1.7,2,1.3,2.9,1.2.9,1.1.5,5.6,1.8,3.8-.8-5.9.2-8.9-5.9-5.6-10.6,2,.9,8.9-2.4,8.3,1,.4.4.5.4,1.3.4,2-4.6-4.9-3.2-7.4-2.7-2.2.6-4.2-2.6-6.2-.8-.8.7-.3,2.2.8,2.2.9,0,1.2-1.3.4-1.6,1.8-.6.9,2.3.3,3-2.1-1.1-2.4,2.3-.4,1.4,0,.6.1,1.2,0,1.8-2.3-.5-1.7,2.7,0,1.4.5.5.7,1.2.8,1.9-2.3.3-.5,3.2.6,1.3h0Z"/>
            <path d="M102.6,276.9h-.3c-.2.3-.4,1.1,0,1.3l1.9.8,2.4-1.8.7-9.7h-.7c-.2,0-1.5,11.3-2.2,10.6.1-.7,1.8-10.5,1.8-10.5h-.7c0-.1,0,.4,0,.4l-2.7-3.5-.4.2,2.9,3.8-.2.7c-.3-.2-3-4-3.3-4.4h-.6s3.7,4.8,3.7,4.8l-.2.6-4.2-5.5h-.5l4.6,5.9-.2.9-5-6.7h-.7s5.5,7.2,5.5,7.2l-.2.7-6.1-7.9v.6c-.6.4,5.6,7.4,5.9,7.9-.3.9,0,1,.3,1.7.2.8-.4,2.2-1.4,1.8h0Z"/>
            <path d="M103.2,273.8l-5.8-7.7c-.2,0-.1.4-.2.5l5.6,7.3.4-.2ZM97.3,268.7c1.3,1.7,2.7,3.4,4,5.1.2,0,.6.1.6.1l-4.8-6.3c-.4.3,0,.6.2,1h0ZM107.5,265.9c-.6,0-1.3-.2-2-.2-1.2,1.1.1,1.7,1.1,1.6.8.2,1.8-.8.9-1.3ZM107.3,293.2c-.2.9,1.2,1.1,1.3.3.2-.9-1.2-1.1-1.3-.3ZM108.5,288c.2-1.1-1.5-1.4-1.7-.3-.2,1.1,1.5,1.4,1.7.3h0ZM102.7,285.2c.2-1.1-1.5-1.4-1.7-.3-.2,1.1,1.5,1.4,1.7.3h0ZM112.1,295.7c-.7,3.9-2.6,5.6-4.2,5.6s-3.5-1.8-4.2-5.6c.2.2.4.5.7.8l.4.5.5-.3c.2-.1.4-.2.6-.3-.2.4-.3,1-.2,1.5.2,1.1,1.1,2,2.3,2,1.1,0,2-.8,2.3-2,.1-.5,0-1.1-.2-1.5.2,0,.4.2.6.3l.5.3.4-.5c.2-.3.4-.6.6-.8ZM112.9,294.6c-1,.1-1.5.7-2,1.4-.5-.3-1-.5-1.6-.6-.3,0-.6,0-.8.3,1.8.7,1.1,3.4-.6,3.4s-2.4-2.7-.6-3.4c-.2-.2-.5-.3-.8-.3-.6,0-1.1.2-1.6.6-.5-.7-1-1.3-2-1.4.5,4.9,2.8,7.3,5,7.3s4.5-2.4,5-7.3ZM96.8,281.8c.8-.9-1.9-2-2.2-2.5-.3-.2-.7-.1-.9.1-.7.8,1.8,2,2.2,2.5.3.2.8.2,1,0h0Z"/>
            <path d="M96.5,283.7c2.9,0,2.5-4.5-.3-4,1.3.7,2.5,2.6.4,3.1-.8.2-1.6-.7-2.1-1.1,0,1.1.9,2,2.1,2h0Z"/>
            <path d="M92.4,284.5c.6,1.2,4.3,4.4,5.4,2.9-1.8-.9-4.9-3.1-3.7-6-2.7-1.6-.3-4.2,1.8-2,2.2-1.3,4.7-.4,6.8,1.1.8-1.7-3-2.8-3.9-3.3-1.1-.4-4.6.4-5.8.5-.8.1-1.4.8-1.3,1.6.2.9.1,4.6.8,5.2ZM125.1,220.5l1.6.5c-2.5-5.4-7.3-9.4-13.1-10.9-.1.4-.3.8-.4,1.2,5,1.3,9.3,4.6,11.8,9.2ZM91.2,221l1.6-.5c2.5-4.6,6.8-7.9,11.8-9.2-.1-.4-.2-.8-.4-1.2-5.8,1.5-10.5,5.5-13.1,10.9h0ZM121.3,212.2c1.2,0,1.2-1.8,0-1.8-1.2,0-1.2,1.8,0,1.8ZM117.2,209.9c1.2,0,1.2-1.8,0-1.8-1.2,0-1.2,1.8,0,1.8ZM114.9,209.1c1.2,0,1.2-1.8,0-1.8-1.2,0-1.2,1.8,0,1.8ZM119.3,211c1.2,0,1.2-1.8,0-1.8-1.2,0-1.2,1.8,0,1.8ZM123.2,213.7c1.2,0,1.2-1.8,0-1.8-1.2,0-1.2,1.8,0,1.8ZM127.9,220.5c0,1.2,1.8,1.2,1.8,0,0-1.2-1.8-1.2-1.8,0ZM126.8,218.4c0,1.2,1.8,1.2,1.8,0,0-1.2-1.8-1.2-1.8,0ZM124.9,215.4c1.2,0,1.2-1.8,0-1.8-1.2,0-1.2,1.8,0,1.8ZM125.5,216.4c0,1.2,1.8,1.2,1.8,0,0-1.2-1.8-1.2-1.8,0ZM96.6,212.2c1.2,0,1.2-1.8,0-1.8-1.2,0-1.2,1.8,0,1.8ZM94.7,213.7c1.2,0,1.2-1.8,0-1.8-1.2,0-1.2,1.8,0,1.8ZM89.1,221.4c1.2,0,1.2-1.8,0-1.8-1.2,0-1.2,1.8,0,1.8ZM98.6,211c1.2,0,1.2-1.8,0-1.8-1.2,0-1.2,1.8,0,1.8ZM91.5,217.3c1.2,0,1.2-1.8,0-1.8-1.2,0-1.2,1.8,0,1.8ZM90.2,219.3c1.2,0,1.2-1.8,0-1.8-1.2,0-1.2,1.8,0,1.8ZM103,209.1c1.2,0,1.2-1.8,0-1.8-1.2,0-1.2,1.8,0,1.8ZM93,215.4c1.2,0,1.2-1.8,0-1.8-1.2,0-1.2,1.8,0,1.8ZM100.7,209.9c1.2,0,1.2-1.8,0-1.8-1.2,0-1.2,1.8,0,1.8ZM110.5,218.2h1.2c0-3.8.6-7.1,1.5-9.2.3-.7-.8-1.2-1.1-.5-1.4,3.1-1.6,7.4-1.6,9.7h0ZM106.2,218.2h1.2c0-2.3-.2-6.6-1.7-9.7-.3-.7-1.4-.2-1.1.5,1,2.2,1.5,5.4,1.5,9.2h0ZM109,218.2c1.3,0,1.3-2,0-1.9-1.3,0-1.3,2,0,1.9ZM109,215.8c1.3,0,1.3-2,0-1.9-1.3,0-1.3,2,0,1.9ZM109,213.3c1.3,0,1.3-2,0-1.9-1.3,0-1.3,2,0,1.9ZM108.3,211c.4-.2,1-.2,1.4,0,1.4-2.1-2.8-2.1-1.4,0Z"/>
            <path d="M109.7,208.9c1.1-2-2.7-2-1.6,0,.5-.3,1.1-.3,1.5,0h0Z"/>
            <path d="M2059.8,2830.5"/>
            <path d="M125.1,258.6c0-.3-.3-.5-.6-.4h0c-.5,2.2-.3-6.7-.3-6.4l.5.2v-1l-.5.2v-6.6c0-.3.6,0,.3.2h0c.6.3.8-.7.1-.7l.4-.7h-.1c0-.1-.7.3-.7.3,0-.6-1-.5-.8.1h0c.2-.3.5.2.2.3h-6.1l.2-.4h-1.1l.2.4h-6.1c-.4,0,0-.5.2-.3h0c.2-.6-.8-.7-.8-.1l-.7-.4h-.1c0,0,.4.8.4.8-.6,0-.5,1,.1.8h0c.5-2.2.2,6.7.3,6.3l-.4-.2v1l.4-.2c0-.2.2,8.5-.3,6.4h0c-.6-.2-.8.7-.1.7l-.4.7h.1c0,.1.7-.3.7-.3,0,.6,1,.5.8-.1h0c-.1.1-.4,0-.4-.1s0-.2.2-.2h6.1l-.2.4h1.1l-.2-.4h6.1c0,0,.2,0,.2.2,0,.2-.2.2-.4.1h0c-.2.6.8.7.8.1l.7.4h.1c0,0-.4-.8-.4-.8.2,0,.4-.2.4-.4ZM117.7,244.4h6.1v14.2h-13.3v-14.1h7.2ZM122.9,252.2h0s0,0,0,0ZM111.5,252.2h0s0,0,0,0h0ZM67.2,227.3l.3-.2c0-1.2.7-2.3,1.6-3,0,0-.1-.2-.2-.2-1.1.8-1.7,2.1-1.7,3.4ZM70.1,225.6h.3c-.3-.9-.7-1.6-1.2-2.2-.1-.1-.4,0-.2.2.4.4.8,1.1,1.1,2ZM67.5,224.7c.6,0,.6-.9,0-.9s-.6.9,0,.9ZM75.9,222.8c-.4.4-1-.2-.6-.6.4-.4,1,.2.6.6ZM76.7,223.5c-.4.4-1-.2-.6-.6.4-.4,1,.2.6.6ZM72.7,222.1c-.4.4-1-.2-.6-.6.4-.4,1,.2.6.6ZM74.9,222.3c-.4.4-1-.2-.6-.6.4-.4,1,.2.6.6ZM75.9,223.7h-.4c-.9-.7-2.1-1.1-3.3-.9v-.3c1.3-.2,2.6.2,3.7,1.2h0ZM72.6,224.6h-.3c-.4-.6-.6-1.3-.7-2.1,0-.2.3-.2.3,0,0,.6.2,1.3.6,2.2ZM73.8,222.1c-.4.4-1-.2-.6-.6.4-.4,1,.2.6.6ZM121,268.8c1.3,0,4.2-1.4,2.1-2.6-1.2-.2-2.4.4-3.6.6-4.7,1.8-1.9-.4-4.8-.2,1,2.4,3.4,1.2,5.3.6,0,.3-.3.3-.2.6l1.8-.4c.3-1.2,2.5-1.2,1.5,0-2.5,1.1-5.5.9-8.2,1.6-1.8,4.6-4.9,1.5-4.8,2.8-.7,0-.7.7,0,.7,0,1.3,3.4-.2,4.1-.6l.4-.9c1,.5,1.8-1,2.7-1.3.9-.2,2.1-1.1,2.9-.2.9.9,2.1-.5,2.9.5-.3.7,0,.4.2.9,0,.4.7.4.7,0,0-.2,0-.3.2-.4.4-.6-.4-1.2-.7-1.7-.6-.6-1.7.5-2.3,0Z"/>
            <path d="M109.5,266.7c.2,0,.1.3.2.4,1.1,0,2.2-.2,3.3-.4.8,0,.8-.7,1.4-.8,1.5,0,2.4-1.2,3.7-1.4,1.1-.3,2.6-.7,3.6,0,.2.3.6.3.9.2.5,0,1-.2,1.3.4l-.3.3.2.3c.2,0,.3.2.4.3.1.2.4.2.5,0,0-.3.3-.1.4-.4,0-.7-.1-1.5-.8-1.8-.3-.3-1.6.3-1.7-.3,1,.2,2.8-1,1.6-1.9-2.2-.5-4.6.5-6.8.8-.9.2-.4-1.2-2.4-.8,1.2,2.5,3.9.7,6,.7,0,.2-.4.2-.3.5.6-.2,1.6.1,2-.5.2-.7,1.7-.5,1.3.3-1.2.7-2.9.4-4.2.5-1.7.1-3.5.2-5,.8-.3,1-.7,1.9-1.9,2.2-.8-.7-1.9.1-2.7-.6-.3,0-.3.2-.4.4-.4.2-.5.4-.1.7h0ZM121.8,273.4c-2.2-.3-1.9,1.2-2.9.9.2-.2.7-.4.6-.7-1.6.7-3.3,1.2-4.9,1.9-.8.9-.5,2.5-2.4,2.7,0,.9-1.3,1.5-2.1,1.1-.3.3-.2.4-.1.6-.3.2-.6.8,0,.8.2,0,.3-.3.5-.2v.4c.1,0,.3,0,.4,0,.2-.3.6,0,.9-.3.9-.6,2.3-1.2,2.2-2.5,1.6-.7,2.6-3.4,4.8-2.4,1.1.6,1.4-1.1,2.3-1.2.3.6.4.6.7.4.6.5.5-.3.7-.6,0-.3-.3-.7-.6-.7h0Z"/>
            <path d="M111.9,263.1c-.4,1,0,2.3.9,2.8,1.1-.5,1.7-1.8,1.4-3,.2-.2.6-.3.5-.7-.2-.4-.8-.1-.9-.6-.4-.5-.9-.1-1.2.3-.2,0-.5,0-.7,0-.2.4.4.7.1,1.1ZM111.6,276.8c1,2.4,2.6-.7,2.2-2,.7-.6.5-.9-.3-1-.3-.6-1-.7-1.4-.2-.2.2-.4.1-.6.1-.4.2-.2.7.2.8-.2.7-.3,1.5,0,2.2h0ZM114.5,267.8c-.2-.1-.5-.1-.7-.1-.4-.9-1-.6-1.6,0-.8-.3-.7.4-.3.8-.4,1-.1,2.4.9,2.8,1.1-.5,1.4-1.8,1.3-2.8.3,0,.6-.4.3-.6ZM122.2,271c-2-.6-5,3.5-6.3,2.3-.3-.7-1.3-.6-1.9-.4.7.5,1.1,1.7,2.2,1.3,1.2-.2,2.2-1.2,3.3-1.7,0,.4-.3.5-.5.9.7-.2,1.4-.4,2-.9,0-2,2.8-.6,0,.6.5,0,.8.2,1.2-.2.6-.6.7-1.4,0-1.9h0ZM117.8,275.7c-.6.1-1.1.2-1.5.8l.4.6c-.3.7-1,.6-1.6.6v.5c-.1.2-.2.4-.2.7h.2c.2-.1.5-.4.6,0,1.2-.3,2.2-1.1,2.8-2.2-.4-.2-.6-.6-.8-1Z"/>
            <path d="M116.2,271.5c-.3,0-.3.3-.1.5.2.2.3,0,.5,0v.3c1.1,0,2.6-.9,3.2-1.7l-.7-1c-.6.2-1.2.2-1.5.7l.6.6c-.4.2-.8.6-1.2.2-.2-.2-.6,0-.5.2,0,0,0,.1,0,.2h-.2ZM111.8,277.8c-.4-.8-1-1.4-1.3-2.2.3-.5.2-1.1-.5-.7-.2-.3-.4-.4-.7-.3,0,.2-.1.4.1.6h0c0,.1-.2.2-.2.2-.2.4.2.6.4,1,.5.7,1.1,2.4,2.2,1.5ZM111.8,265.5c0-1-1.3-1.7-.9-2.7.1-.2,0-.4-.1-.6-.2,0-.4,0-.6,0-.5-.2-.5.3-.5.6h-.3c.3,1,1.3,3.3,2.4,2.8ZM109.5,269c.4.7.6,1.7,1.3,2.1.3,0,.9.3,1.1,0-.2-.8-1.2-1.3-1.1-2.2,0-.2,0-.4-.2-.6-.4.1-1.2-.8-.9.3-.2,0-.4.2-.2.5h0ZM92.2,248.3c.2,0,.3-.2.5,0v.3c1,.5,2.2,0,3.2-.3.4-.1.6-.5,1.1-.5,1.1,0,1.7-.8,2.6-1.1,1.2-.2,2.3-.4,3.5-.4,1.4,1.8,1.6.3,2.8.9v.5c-.1,0,.2.1.2.1-.1.5.6.7.7.1,0,0,0-.2,0-.2.7-.4-.4-2.3-1.2-1.8-.4.2-.9.4-1.2-.1.7-.3,1.5-.2,2-.8.4-.4.3-1.2-.3-1.5-1.7-.5-3.5.4-5.2.5-3.2.9-.9-.7-3.5-.7.9,2.6,3.7.9,5.6.7-.1.3-.5.4-.6.7.7-.1,1.6.1,2.1-.4.3-.7,2-.8,1.6.2-1.6,1.6-6.6.1-8.9,1.1-.3,1-.9,1.7-1.9,2-.8-.5-1.2,0-2-.2-.2-.2-.5-.5-.8-.2v.4c-.4-.1-.8.4-.4.6h0Z"/>
            <path d="M95,244.3c-.6,1.1-.4,2,.3,3,1.3,0,1.9-1.8,1.6-2.8l.4-.3v-.4c-.1,0-.8,0-.8,0-.5-.6-.8-.6-1.3,0-.3-.1-.5,0-.6.2,0,.2.2.3.4.4ZM101.4,246.6c0,.3.2.4.3.7-.4.2-.7.2-1.1.3-.2-.2-.3-.5-.6-.4-.2,0,0,.2-.2.3-.3,0-.4.1-.4.4l.4.2c-.3,1.3,3.4,0,4-.5-.2-.3-.4-.5-.5-.9-.2-.6-1.3-.1-1.7,0h0ZM94.5,246.8c0-.5-.2-1-.5-1.4-.4-.4-.6-1-.1-1.5-.2-.2-.5,0-.7-.3-.3-.3-.4,0-.5.4-.8.1-.3.4-.2.8.2.7,1.1,2.4,2,2ZM105.7,251.8c-.4.2-.9.4-1.2-.1.7-.3,1.5-.2,2-.8.4-.4.3-1.3-.4-1.5-1.7-.5-3.5.4-5.3.5-3.2.9-.9-.7-3.5-.7.9,2.6,3.7.9,5.6.8-.1.3-.5.4-.6.7.7-.1,1.6.1,2.1-.4.3-.7,2-.8,1.6.2-1.6,1.6-6.7.1-9,1.1-.4,1-.9,1.7-1.9,2-.7-.4-1.1,0-1.6-.1,0,.2,0,.4.1.6,0,.2,0,.4,0,.6.7,0,1.4-.3,2-.5.4-.1.7-.5,1.1-.5,1.1,0,1.7-.8,2.7-1.1,1.2-.2,2.4-.4,3.5-.4,1.4,1.9,1.6.3,2.8.9v.5c-.1,0,.2.1.2.1-.1.5.6.7.7.2,0,0,0-.2,0-.2.7-.4-.4-2.3-1.2-1.8Z"/>
            <path d="M94.8,250.2c-.6,1.1-.4,2.1.3,3,1.3,0,1.9-1.8,1.6-2.9.1,0,.3-.2.4-.3v-.4c-.1,0-.8,0-.8,0-.5-.6-.8-.6-1.3,0-.3-.1-.5,0-.7.2.1.2.2.3.4.4h0ZM101.3,252.6c0,.3.2.4.3.7-.4.2-.8.2-1.1.3-.2-.2-.3-.6-.6-.5-.2,0-.1.3-.2.3-.3,0-.4.1-.4.3l.4.2c-.3,1.4,3.5,0,4-.5-.2-.3-.4-.5-.5-.9-.2-.6-1.3-.1-1.7,0ZM94.3,252.7c0-.5-.2-1-.5-1.4-.4-.4-.6-1-.1-1.5-.2-.2-.5,0-.7-.3-.3-.3-.4,0-.5.4-.8.1-.3.4-.1.8.2.7,1.2,2.4,2,2.1h0ZM105.8,257.4c-.4.2-.9.4-1.2-.1.7-.3,1.5-.2,2-.8.3-.4.3-1.2-.4-1.5-1.7-.5-3.5.4-5.3.5-3.2.9-.9-.7-3.5-.7.9,2.6,3.7.9,5.6.7-.1.3-.5.4-.6.7.7-.1,1.6.1,2.1-.4.3-.7,2-.8,1.6.2-1.6,1.6-6.7.1-9,1.1-.3,1-.9,1.7-1.9,2-.8-.5-1.2,0-2-.2l-.2-.2s0,0,0,0c0,0,0,0-.1,0h0c0,.5-.1,1-.3,1.4,1.1.4,2.2,0,3.2-.4.4-.1.7-.5,1.1-.5,1.1,0,1.7-.8,2.7-1.1,1.2-.2,2.3-.4,3.5-.4,1.4,1.8,1.6.3,2.8.9v.5c-.1,0,.2.1.2.1-.1.5.6.7.7.1,0,0,0-.2,0-.2.7-.4-.4-2.3-1.2-1.8Z"/>
            <path d="M94.9,255.8c-.6,1.1-.4,2.1.3,3,1.3,0,1.9-1.8,1.6-2.9.1,0,.3-.2.4-.3v-.4c-.1,0-.8,0-.8,0-.5-.6-.8-.6-1.3,0-.3-.1-.5,0-.7.2.1.2.2.3.4.4ZM101.4,258.1c0,.3.2.4.3.7-.4.2-.7.2-1.1.3-.2-.2-.3-.5-.6-.4-.2,0,0,.2-.2.3-.3,0-.4.1-.4.4l.4.2c-.3,1.4,3.5,0,4-.5-.2-.3-.4-.5-.5-.9-.2-.6-1.3-.1-1.7,0h0ZM93.9,256.9c0,0-.1-.2-.2-.3,0,.2.1.5,0,.8,0,.2,0,.5-.1.6.3.3.5.3.8.2,0-.5-.2-1-.5-1.4ZM113.3,247.3c.3.2.5,1,.7,1.2.3.4,1,1.6,1.7,1.4h0c.2-.1.4-.7.4-.8,0,0-.1-.1-.3-.2-.6-.5-1-1.1-1-1.6,0-.2.4-.4.3-.5,0-.6-.5,0-.7,0-.1-.2-.5-.6-.7-.4-.1,0,0,.4,0,.5,0,0,0,0-.2,0-.5,0-.6.3-.2.5h0Z"/>
            <path d="M116.1,251.3c.2-.2.7-.7.8-.8,0-.1,0-.1.4-.1,1-.1,1.5-.5,1.8-1.6.1-.3,0-1-.2-1.2,0,0-.1-.2,0-.2.2,0,.6-.2.6-.4-.1-.2-.4,0-.7-.2-.3-.1-.9-.3-1.2-.2-.2.2-1.4.3-1.1.6v.4c.1,0,.7,0,.7,0v.4h-.5c-.3.6.8.6,1,.2.2-.2.5-.3.5,0-.1.3-.7.5-1,.6-.5,0-.6.9-.9,1.2-1,.2-1.3.2-2.3-.6-.4-.4-.6-.1-.4.2-.2,0-1.1-.4-.7.4h0c-.4.7.2.5.6.7.8.3,1.6.5,2.7.4h0Z"/>
            <path d="M119.2,250.6l.4.9c-.1.1.9.4,1,.5.5.4.4,1.4,0,1.2-.7-.3-1.2-1.3-1.7-2-.1-.1-.5-1.1-.7-.9-3,.7.6,1.4,0,2.6-.1.2-.4.9-.3,1.1.3.3.8.5,1.1.9.5.5,0,1-.6.6-.4-.3-.8.1-.4.5,0,0-.2.2-.2.2-.4.5.2.5.6.2.2,0,0,.4.3.4.6-.1,1.4-.4,1.6-1.3.4-.8-.5-.7-.6-1.3-.2-.3-.2-1.3.2-.9.4.5.9.8,1.4.4.5-.4,0-1.5-.2-1.9-.4-.9-.9-1.8-.9-2.9.6-.7,1.3.6,1.8-1.4-1.4,0-2.9,1.1-2.2,2.7.4.9.4.8-.5.7h0Z"/>
            <path d="M116.9,252.4c-.8,0-1.3-.1-1.1.8,0,.2.1.9.3,1,0,0,0,.2,0,.2-.3.2-1.5-.3-1.3-.7,0-.3-.3-.4-.4-.2,0,.1-.1.1-.3,0-.2-.3-.5.1-.4.3,0,0,0,.2-.1.2-.3.1-.3.6.1.6,1,.5,1.8.9,2.9.8h0c1.2,0,.6-.3.5-1.2-.2-.9,1.4-1.5-.2-1.9ZM118.1,265.4c0,0-.3,0-.3,0,0,.4-.4.3-.6.6,0,.2.2.3.4.3.2,0,.2.3.4.3,1-.5,2.2-.3,3.1-1.1-.3-.3-.4-.6-.5-1-.6,0-1.2,0-1.7.2,0,.3.1.4.3.6-.4.2-.8.3-1.2,0Z"/>
            <path d="M134.3,254.1c-.4-.8-1.3-5.6-2.7-4.6,6.1,11.3,2,26.3-8.6,33.5-3.1,1.9-7,5-10.7,2.9,2.4-9.2,13.8-5.3,16.3-22.9-.3-.1-.4-.2-.7-.3-.3,2.4-1,4.8-1.9,7.1,1-2.6.4-10.8.5-11.2-.1-.1-.2-.2-.5-.6,0,1,0,1.3,0,2.7h-17.4v-17.9h17v10.1c0,.2,0,.5.1.7.2-.4.3-.4.4-.5v-10.9h-35.7v9.2s.5,0,.5,0v-8.6h17.2v17.9h-16.5c0,0,0-.3,0-.2,0,0-.1.3-.1.2h-.5v-1.4h-.5c-.4,1.3.7,12.6,2.6,14.5-3.7-3.6-4.9-9.9-4.2-14.7,0,0-.4-.3-.7-.6-1.2,6.8,1.4,13.4,6.2,18.2.4.5.9,0,1.4-.2-.1-.1-.3-.3-.5-.5l.5.5-.3-.7c-3.8-2.8-4.4-10.9-4.4-14.7h17.1c0,0,0,22.5,0,22.5-3.6-.2-6.1-4.1-9.6-4.1,5.1,3,14.3,10.1,20.2,7h0c-.6.9-2.8,2.3-3.7,1.9-1.6-.9-4,.8-2.9,2.5.1.2.2.4,0,.7-6.3-.6-12-4.3-17.3-7.5h0c2,2.8,9.3,6.2,9.3,6.2v4.1l.8.5v-4.4c1.9.6,5.8,1.9,5.8,1.9v2.7s.8-.5.8-.5v-2.1s1-.3,1-.3c.6-.2,1.1-.8,1-1.5-.3-.2-.5-.5-.4-.9.2-.8,1.1-.8,1.5-.3.8.4,1.6-.6,2.3-.8,1.1-.7,2.5-1.2,3-2.5.1-.3.3-.5.5-.7,2.2-1.2,4.3-2.7,6.2-4.4,7.7-6.5,10.4-17.6,7.9-27.1ZM108.7,261.1h17.3c1.4,13.1-6.4,17.5-17.4,22.1v-22.1h0ZM109,284.6c1-1,2.3-1.6,3.7-1.8l-1.3,2.9-2.4-1.1h0ZM70.3,291.8c-.4-.2-.9-.3-1.5-.2.1.9.4,2.5.7,3.3,1.6-.2,2.1-2.3.8-3.1Z"/>
            <path d="M92.6,285.8c-9.8,0-19.6,4.2-29.4,4.2s-2.4,0-3.6-.2c3,2.4,2.8,7.2,7.3,7.2h.6c6-.7,12-2.3,17.9-3.3,1-.2,5.9-1.3,8.8-1.3s1.8.1,2,.6c.3.6-1.6,2.2-1.6,2.2,0,0,0,0,0,0,.2,0,1.3-.6,2.1-1.1,3.2-2.3-3.5-8.2-4.1-8.2ZM71.9,293.9c-.5,1.3-2.1,1.5-3.4,1.8,0-.4-.7-4-.9-4.4,2.2-.9,5.3,0,4.3,2.6ZM73.1,294.7c0-1.5-.3-3-.9-4.4l1.3-.3c0,1.5.3,3,.9,4.4l-1.2.3ZM78,293.7l-2.6.6c0-.4-.8-4-1-4.3l2.7-.6-.2.9c-.4-.1-.8-.1-1.3,0l.3,1.3,1.5-.3.2.6c-.3,0-1.2.2-1.6.2l.3,1.4c.7-.2,1.3-.4,1.8-.7h0l-.2.9h0ZM80.6,293.2c-1.9,0-2.2-2.6-2.6-3.9l.9-.2c.4,1.1.3,3.8,2.2,3.4,1.4-.6.3-2.8.1-3.9h.9c.3,1.6,1.1,4.7-1.6,4.5h0ZM88.1,291.9l-2.6.6c0-.4-.8-3.9-1-4.3l2.7-.6-.2.9c-.4-.1-.8-.1-1.3,0l.3,1.3,1.5-.3.2.6c-.3,0-1.2.2-1.6.3l.3,1.3c.7-.2,1.3-.4,1.8-.7h0s-.2,1-.2,1ZM90.8,287.6l.7,3.7-.9.2-.8-3.7c-.5,0-.8,0-1.5.4v-.8s3.7-.5,3.7-.5l.3.7c-.5,0-1,0-1.5,0h0ZM138.1,289.9c-.2.8-.5,2.3-.6,3.2,1.9.4,2.5-2.8.6-3.2ZM145.7,291.3c-1.5-.4-2,2.7-.7,3.2,1.5.4,2-2.7.7-3.2h0ZM141.8,290.7l-.5,1.6c1.3.2,1.8-1.4.5-1.6ZM130,288.4c-1.5-.4-2.1,2.7-.8,3.3,1.6.4,2.1-2.7.8-3.3ZM2059.8,2830.5"/>
          </g>
        </g>
      </g>
    </mask>
  </defs>
  <path class="st1" d="M.6,140.7h2350v286H.6V140.7Z"/>
  <g class="st3">
    <path class="st5" d="M2350.6,426.7v-35.8H.6v71.5h2350v-35.8Z"/>
  </g>
  <path class="st2" d="M203.5,231.8h40.5v11h-28.3v12.8h26.1v11h-26.1v25.3h-12.1v-60.1ZM249.8,261.8c0-4.3.6-8.3,1.9-12.1,1.3-3.8,3.2-7,5.6-9.8,2.4-2.8,5.4-5,8.8-6.6,3.5-1.6,7.4-2.4,11.7-2.4s6,.4,8.7,1.2c2.7.8,5.1,2,7.2,3.4,2.1,1.5,4,3.3,5.5,5.4,1.5,2.1,2.7,4.4,3.6,7l-11.7,3.9c-.3-1.1-.9-2.3-1.6-3.5-.7-1.2-1.6-2.3-2.8-3.2-1.1-1-2.4-1.8-3.9-2.4-1.5-.6-3.2-.9-5-.9-2.8,0-5.1.6-7.1,1.7-2,1.1-3.6,2.6-4.8,4.5-1.3,1.9-2.2,4-2.8,6.3-.6,2.4-.9,4.8-.9,7.2v.3c0,2.5.3,4.9.9,7.3.6,2.4,1.5,4.5,2.8,6.3,1.3,1.8,2.9,3.3,4.8,4.5,2,1.1,4.3,1.7,7.1,1.7s3.5-.3,5-.9c1.5-.6,2.8-1.4,3.9-2.4,1.1-1,2-2,2.8-3.2.7-1.2,1.3-2.3,1.6-3.4l11.7,3.9c-.9,2.6-2.1,4.9-3.6,7-1.5,2.1-3.4,3.9-5.5,5.4-2.1,1.5-4.5,2.6-7.2,3.4-2.7.8-5.6,1.2-8.7,1.2s-8.2-.8-11.7-2.4c-3.5-1.6-6.4-3.8-8.8-6.6-2.4-2.8-4.3-6.1-5.6-9.8-1.3-3.7-1.9-7.8-1.9-12.1ZM362.9,261.8c0,4.5-.6,8.6-1.8,12.3-1.2,3.7-3,6.9-5.4,9.5-2.4,2.6-5.4,4.7-9.1,6.1-3.6,1.4-7.9,2.2-12.7,2.2h-22.1v-60.1h22.1c4.9,0,9.1.7,12.7,2.2,3.6,1.4,6.7,3.5,9.1,6.1,2.4,2.6,4.2,5.8,5.4,9.5,1.2,3.7,1.8,7.8,1.8,12.3ZM350.3,260.6c0-2.5-.3-4.9-.9-7.1-.6-2.2-1.6-4.1-3-5.7-1.4-1.6-3.2-2.9-5.4-3.8-2.2-.9-4.9-1.4-8-1.4h-9.1v38.5h9.1c3.1,0,5.8-.5,8-1.4,2.2-.9,4-2.2,5.4-3.9,1.4-1.6,2.4-3.6,3-5.8.6-2.2,1-4.6,1-7.1v-2.3ZM398.3,230.9c4.5,0,8.5.8,12,2.4,3.5,1.6,6.6,3.8,9,6.6,2.5,2.8,4.4,6,5.7,9.8,1.3,3.8,1.9,7.8,1.9,12.1s-.6,8.4-1.9,12.1c-1.3,3.7-3.2,7-5.7,9.8-2.5,2.8-5.5,5-9,6.6-3.5,1.6-7.6,2.4-12,2.4s-8.5-.8-12-2.4c-3.5-1.6-6.5-3.8-9-6.6-2.5-2.8-4.4-6.1-5.7-9.8-1.3-3.7-1.9-7.8-1.9-12.1s.7-8.3,1.9-12.1,3.2-7,5.7-9.8c2.5-2.8,5.5-5,9-6.6,3.5-1.6,7.5-2.4,12-2.4ZM398.3,281.7c2.6,0,4.9-.5,6.9-1.5,2-1,3.7-2.4,5-4.1,1.4-1.8,2.4-3.8,3.1-6.2.7-2.4,1-5,1-7.9v-.3c0-2.8-.3-5.4-1-7.9-.7-2.4-1.7-4.5-3.1-6.3-1.4-1.8-3-3.1-5-4.1-2-1-4.3-1.5-6.9-1.5s-4.9.5-7,1.5c-2,1-3.7,2.4-5,4.1-1.4,1.8-2.4,3.8-3.1,6.3-.7,2.4-1,5-1,7.9v.3c0,2.8.4,5.5,1,7.9.7,2.4,1.7,4.5,3.1,6.2,1.4,1.8,3,3.1,5,4.1,2,1,4.3,1.5,7,1.5ZM502.4,261.8c0,4.5-.6,8.6-1.7,12.3-1.1,3.7-2.8,6.9-5.1,9.5-2.3,2.6-5.2,4.7-8.6,6.1-3.5,1.4-7.5,2.2-12.2,2.2h-19.3v-60.1h19.3c4.7,0,8.7.7,12.2,2.2,3.4,1.4,6.3,3.5,8.6,6.1,2.3,2.6,4,5.8,5.1,9.5,1.1,3.7,1.7,7.8,1.7,12.3ZM494.5,260.6c0-3.1-.4-6.1-1.2-8.8-.8-2.7-2-5.1-3.6-7.1-1.6-2-3.7-3.6-6.2-4.8-2.5-1.2-5.5-1.8-8.9-1.8h-11.7v47.3h11.7c3.4,0,6.4-.6,8.9-1.7,2.5-1.2,4.6-2.8,6.2-4.8,1.6-2,2.8-4.4,3.6-7.1.8-2.7,1.2-5.7,1.2-8.8v-2.4ZM518.7,272.6c.1,2,.5,3.9,1.2,5.6.7,1.7,1.6,3.2,2.7,4.4,1.2,1.2,2.5,2.2,4.1,2.9,1.6.7,3.3,1,5.3,1s4.5-.4,6.3-1.2c1.8-.8,3.5-1.8,5-3l3.6,5.1c-1.9,1.5-4.2,2.8-6.7,3.8-2.5,1-5.4,1.5-8.5,1.5s-5.9-.6-8.4-1.7c-2.5-1.1-4.7-2.6-6.4-4.6-1.8-2-3.1-4.3-4.1-7-1-2.7-1.4-5.7-1.4-8.9s.5-6.3,1.4-9c.9-2.7,2.3-5.1,4-7,1.7-2,3.7-3.5,6.1-4.6,2.4-1.1,5-1.7,7.9-1.7s5.4.6,7.6,1.7c2.3,1.1,4.2,2.6,5.8,4.6,1.6,2,2.8,4.3,3.7,7,.9,2.7,1.3,5.7,1.3,8.9v2.2h-30.4ZM530.4,254.4c-1.8,0-3.4.3-4.8,1-1.4.7-2.6,1.6-3.6,2.8-1,1.2-1.8,2.5-2.3,4-.6,1.5-.9,3.1-1,4.7h22.7c0-1.6-.3-3.2-.9-4.8s-1.2-2.9-2.2-4c-.9-1.2-2.1-2.1-3.4-2.8-1.3-.7-2.8-1-4.5-1ZM587.5,280c0,2-.4,3.8-1.3,5.4-.9,1.6-2,2.9-3.5,4-1.5,1.1-3.1,1.9-5,2.5-1.9.6-3.8.8-5.8.8-3.1,0-6.1-.5-9-1.6-2.9-1.1-5.5-2.6-7.7-4.6l3.9-5c.7.6,1.4,1.2,2.3,1.8.9.6,1.9,1.2,3,1.8,1.1.5,2.3,1,3.5,1.3,1.3.3,2.6.5,4,.5s2.2-.1,3.3-.4c1-.3,2-.7,2.7-1.3.8-.6,1.4-1.3,1.9-2.1.5-.8.7-1.7.7-2.7s-.2-2.1-.7-2.8c-.5-.8-1.2-1.4-2-1.9-.8-.5-1.8-1-2.9-1.4-1.1-.4-2.3-.8-3.5-1.2l-2.7-.9c-1.5-.5-3-1.1-4.4-1.7-1.4-.6-2.6-1.4-3.7-2.4-1.1-.9-1.9-2-2.6-3.3-.6-1.3-.9-2.8-.9-4.6s.3-2.9.9-4.3c.6-1.4,1.6-2.7,2.8-3.9,1.3-1.1,2.9-2.1,4.8-2.8,2-.7,4.3-1.1,6.9-1.1s5.6.5,8.1,1.5c2.5,1,4.6,2.2,6.3,3.6l-3.7,5.1c-.6-.6-1.3-1.1-2.2-1.7-.8-.5-1.7-1-2.7-1.4-1-.4-1.9-.7-3-1s-2.1-.4-3.1-.4c-1.5,0-2.8.2-3.9.5-1.1.3-1.9.8-2.6,1.4-.6.6-1.1,1.2-1.4,1.9s-.4,1.4-.4,2.1c0,1,.2,1.8.6,2.5s1,1.2,1.7,1.7c.7.5,1.5.9,2.3,1.2.9.3,1.8.7,2.7,1l3.5,1.2c1.7.6,3.2,1.2,4.6,1.8,1.4.6,2.6,1.3,3.7,2.2,1.3,1.1,2.4,2.3,3.1,3.7.7,1.4,1.1,3.1,1.1,5.1ZM605.3,291.9h-7v-42.8h7v42.8ZM597,236.7c0-.7.1-1.3.4-1.9.3-.6.6-1.1,1-1.6.4-.4,1-.8,1.6-1.1.6-.3,1.2-.4,1.9-.4s1.3.1,1.9.4c.6.3,1.1.6,1.5,1.1s.8,1,1,1.6c.3.6.4,1.2.4,1.9s-.1,1.3-.4,1.9c-.3.6-.6,1.1-1,1.6-.4.4-.9.8-1.5,1-.6.3-1.2.4-1.9.4s-1.3-.1-1.9-.4-1.1-.6-1.6-1c-.4-.4-.8-.9-1-1.6-.3-.6-.4-1.2-.4-1.9ZM615.8,268.1c0-2.8.4-5.4,1.2-7.9.8-2.4,2-4.5,3.5-6.3,1.5-1.8,3.3-3.2,5.5-4.2,2.1-1,4.5-1.5,7.2-1.5s4.6.5,6.7,1.4c2.1.9,3.9,2.4,5.4,4.4v-4.9h7v42.8c0,2.7-.5,4.9-1.6,6.7-1.1,1.8-2.5,3.2-4.2,4.3-1.7,1.1-3.7,1.9-5.9,2.3-2.2.5-4.4.7-6.7.7s-2.6,0-3.9-.2c-1.4-.1-2.7-.3-4.1-.6-1.4-.3-2.7-.6-4-1.1-1.3-.4-2.6-.9-3.8-1.5l2.6-5.9c.8.4,1.7.8,2.6,1.2s1.9.7,3,1c1.1.3,2.2.6,3.5.8,1.2.2,2.6.3,4,.3s3.4-.2,4.8-.5c1.4-.4,2.6-.9,3.6-1.7,1-.8,1.7-1.7,2.3-2.9.5-1.2.8-2.6.8-4.3v-8.1c-1.5,2-3.3,3.5-5.4,4.4-2.1.9-4.4,1.4-6.7,1.4s-5.1-.5-7.2-1.5c-2.1-1-4-2.4-5.5-4.2-1.5-1.8-2.7-3.9-3.5-6.3-.8-2.4-1.2-5-1.2-7.9ZM645.4,267.9c0-1.9-.2-3.7-.6-5.3-.4-1.6-1.1-3.1-2-4.3-.9-1.2-2-2.2-3.4-2.8-1.4-.7-3-1-5-1s-3.6.3-5.1,1c-1.4.7-2.6,1.7-3.5,2.9-.9,1.2-1.6,2.6-2.1,4.3-.4,1.6-.7,3.4-.7,5.3v.3c0,1.9.2,3.6.7,5.3.4,1.6,1.1,3.1,2.1,4.3.9,1.2,2.1,2.2,3.5,2.9,1.4.7,3.1,1,5.1,1s3.6-.3,5-1c1.4-.7,2.5-1.6,3.4-2.8.9-1.2,1.5-2.6,2-4.3.4-1.6.6-3.4.6-5.3v-.3ZM665.1,249h7v4.9c1.5-2,3.2-3.4,5.4-4.4,2.1-.9,4.5-1.4,7.1-1.4s4.5.4,6.2,1.2c1.8.8,3.3,1.8,4.5,3.2,1.2,1.3,2.1,2.9,2.7,4.7.6,1.8.9,3.6.9,5.6v29.1h-7v-26.9c0-1.9-.2-3.5-.7-4.8s-1.1-2.4-1.9-3.2c-.8-.8-1.7-1.4-2.8-1.8-1.1-.4-2.2-.6-3.5-.6s-2.7.2-4,.7c-1.3.5-2.5,1.2-3.5,2.2-1,1-1.9,2.2-2.5,3.7-.6,1.5-1,3.2-1,5.2v25.4h-7v-42.8ZM730.4,278c2.6,2.9,5.5,5.1,8.5,6.4,3,1.3,6.2,2,9.5,2s4.3-.3,6.1-.9c1.8-.6,3.3-1.4,4.5-2.4,1.2-1,2.2-2.2,2.8-3.4.6-1.3.9-2.6.9-4.1s-.4-3.6-1.3-4.9c-.8-1.2-1.9-2.2-3.3-3-1.4-.8-3-1.4-4.8-1.8-1.8-.4-3.7-.8-5.6-1.2l-.8-.2c-1.3-.3-2.7-.5-4.1-.8-1.4-.3-2.8-.6-4.2-1.1-1.4-.5-2.7-1-4-1.7-1.3-.7-2.4-1.5-3.4-2.5-1.3-1.2-2.4-2.7-3.2-4.4-.9-1.7-1.3-3.9-1.3-6.5s.4-3.7,1.2-5.7c.8-2,2.1-3.7,3.8-5.4,1.7-1.6,4-2.9,6.7-4,2.7-1,6-1.6,9.8-1.6s8.2.8,11.8,2.3c1.5.6,2.9,1.4,4.3,2.3,1.4.9,2.7,2,4,3.3l-5.6,4.6c-2.1-2.1-4.4-3.6-7.1-4.5-2.7-1-5.4-1.4-8.1-1.4s-3.8.2-5.4.7-3,1.2-4.2,2.1c-1.2.9-2.1,1.9-2.7,3.1-.6,1.2-.9,2.4-.9,3.8s.4,3.4,1.2,4.6c.8,1.2,1.9,2.1,3.2,2.8s2.9,1.3,4.5,1.7c1.7.4,3.4.8,5.1,1.1h.4c2.8.6,5.5,1.3,8.1,2,2.6.7,4.9,1.8,6.8,3.1,1.9,1.3,3.5,2.9,4.7,4.9,1.2,2,1.8,4.5,1.8,7.6s-.5,4.4-1.4,6.5c-.9,2.2-2.3,4.1-4.1,5.7-1.8,1.7-4.1,3-6.9,4-2.8,1-6,1.5-9.8,1.5s-5.6-.3-8-.9c-2.5-.6-4.7-1.4-6.8-2.5-1.5-.8-3-1.7-4.5-2.8-1.4-1.1-2.9-2.3-4.3-3.8l5.8-4.7ZM774.3,249h8l10.6,35.4,10.1-35.4h7.9l-15.6,49.3c-.5,1.5-1.1,2.7-1.8,3.7-.8,1-1.6,1.7-2.6,2.3-1,.6-2,1-3.2,1.2s-2.4.3-3.7.3-2.4,0-3.6-.2c-1.3-.1-2.6-.3-4-.5l1-6.2c.6.1,1.2.2,1.8.3.5,0,1.1.2,1.8.2.7,0,1.4,0,2.1,0,1.5,0,2.7-.3,3.6-1,.9-.7,1.5-1.8,1.8-3.3l.4-2-14.4-44.3ZM847.2,280c0,2-.4,3.8-1.3,5.4-.9,1.6-2,2.9-3.5,4-1.5,1.1-3.1,1.9-5,2.5-1.9.6-3.8.8-5.8.8-3.1,0-6.1-.5-9-1.6-2.9-1.1-5.5-2.6-7.7-4.6l3.9-5c.7.6,1.4,1.2,2.3,1.8.9.6,1.9,1.2,3,1.8,1.1.5,2.3,1,3.5,1.3,1.3.3,2.6.5,4,.5s2.2-.1,3.3-.4c1-.3,2-.7,2.7-1.3.8-.6,1.4-1.3,1.9-2.1.5-.8.7-1.7.7-2.7s-.2-2.1-.7-2.8c-.5-.8-1.2-1.4-2-1.9-.8-.5-1.8-1-2.9-1.4-1.1-.4-2.3-.8-3.5-1.2l-2.7-.9c-1.5-.5-3-1.1-4.4-1.7-1.4-.6-2.6-1.4-3.7-2.4-1.1-.9-1.9-2-2.6-3.3-.6-1.3-.9-2.8-.9-4.6s.3-2.9.9-4.3c.6-1.4,1.6-2.7,2.8-3.9,1.3-1.1,2.9-2.1,4.8-2.8,2-.7,4.3-1.1,6.9-1.1s5.6.5,8.2,1.5c2.5,1,4.6,2.2,6.3,3.6l-3.7,5.1c-.6-.6-1.3-1.1-2.2-1.7-.8-.5-1.7-1-2.7-1.4-.9-.4-1.9-.7-3-1s-2.1-.4-3.1-.4c-1.5,0-2.8.2-3.9.5-1.1.3-1.9.8-2.6,1.4-.6.6-1.1,1.2-1.4,1.9-.3.7-.4,1.4-.4,2.1,0,1,.2,1.8.6,2.5.4.7,1,1.2,1.7,1.7.7.5,1.5.9,2.3,1.2.9.3,1.8.7,2.7,1l3.5,1.2c1.7.6,3.2,1.2,4.6,1.8,1.4.6,2.6,1.3,3.7,2.2,1.3,1.1,2.4,2.3,3.1,3.7.7,1.4,1.1,3.1,1.1,5.1ZM869.1,281.2c0,.7,0,1.4.1,2,0,.6.3,1.2.7,1.7.4.5.9.9,1.7,1.1s1.7.4,3,.4.7,0,1.2,0,.9,0,1.4-.1c.5,0,1,0,1.5-.2s.9-.1,1.2-.2l.8,6.2c-.8.1-1.6.2-2.5.3-.7,0-1.5.2-2.4.2-.9,0-1.8,0-2.7,0-1.7,0-3.2-.2-4.6-.5-1.4-.3-2.5-.9-3.5-1.7-.9-.8-1.7-1.8-2.2-3.1-.5-1.3-.8-2.8-.8-4.6v-27.5h-8.1v-6.2h8.1v-14l7-2.5v16.5h11.9v6.2h-11.9v26ZM894.5,272.6c.1,2,.5,3.9,1.2,5.6.7,1.7,1.6,3.2,2.7,4.4,1.2,1.2,2.5,2.2,4.1,2.9,1.6.7,3.3,1,5.3,1s4.5-.4,6.3-1.2c1.8-.8,3.5-1.8,5-3l3.6,5.1c-1.9,1.5-4.2,2.8-6.7,3.8-2.5,1-5.4,1.5-8.5,1.5s-5.9-.6-8.4-1.7c-2.5-1.1-4.7-2.6-6.4-4.6-1.8-2-3.1-4.3-4.1-7-1-2.7-1.4-5.7-1.4-8.9s.5-6.3,1.4-9c.9-2.7,2.3-5.1,4-7,1.7-2,3.7-3.5,6.1-4.6,2.4-1.1,5-1.7,7.9-1.7s5.4.6,7.6,1.7c2.3,1.1,4.2,2.6,5.8,4.6,1.6,2,2.8,4.3,3.7,7,.9,2.7,1.3,5.7,1.3,8.9v2.2h-30.4ZM906.2,254.4c-1.8,0-3.4.3-4.8,1-1.4.7-2.6,1.6-3.6,2.8-1,1.2-1.8,2.5-2.3,4-.6,1.5-.9,3.1-1,4.7h22.7c0-1.6-.3-3.2-.9-4.8-.5-1.5-1.2-2.9-2.2-4-.9-1.2-2.1-2.1-3.4-2.8-1.3-.7-2.8-1-4.5-1ZM966.7,291.9h-7v-26.9c0-1.9-.2-3.5-.7-4.8-.5-1.3-1.1-2.4-1.8-3.2-.8-.8-1.7-1.4-2.7-1.8-1-.4-2.2-.5-3.3-.5s-2.3.2-3.5.7c-1.1.5-2.1,1.2-3,2.2-.9,1-1.6,2.2-2.1,3.7-.5,1.5-.8,3.3-.8,5.4v25.3h-7v-42.8h7v4.9c1.4-2,3.1-3.4,5-4.4,1.9-.9,4-1.4,6.3-1.4s2,.1,3.1.4c1.1.3,2.2.7,3.3,1.2,1.1.6,2.1,1.3,3,2.2.9.9,1.6,2,2.2,3.3.8-1.3,1.7-2.4,2.7-3.3,1-.9,2.1-1.6,3.2-2.2,1.1-.6,2.3-1,3.5-1.2s2.4-.4,3.6-.4c2.3,0,4.4.4,6.2,1.2,1.8.8,3.3,1.8,4.5,3.1,1.2,1.3,2.2,2.8,2.8,4.6.6,1.7.9,3.5.9,5.4v29.3h-7v-26.9c0-1.9-.2-3.5-.7-4.8-.5-1.3-1.1-2.4-1.9-3.2-.8-.8-1.7-1.4-2.8-1.8-1.1-.4-2.2-.5-3.3-.5s-2.3.2-3.5.7c-1.1.5-2.1,1.2-3,2.2-.9,1-1.6,2.2-2.1,3.7-.5,1.5-.8,3.3-.8,5.4v25.3Z"/>
  <g>
    <g class="st0">
      <rect class="st2" x="36.3" y="196.9" width="143" height="143"/>
    </g>
    <path class="st2" d="M149.8,266.6h-.3s-.9-2.3-.9-2.3c.4-.5.6-1.3,0-1.7-.8-.3-3.2-2.9-3.8-1.2-.3.1-2.1.2-2.3.5-.9-1.4-1.6-2.9-2.2-4.5.4-1.9,5.4-4.3,5.4-4.3,0,0-1.4-2-2-3.2-.3.6-.5.3-1,.6,2.8-4.9,3.4-11.5-.3-16.2-.4-.8-.2-1.9-.6-2.7-.6-.8-1.1-2.5-2.2-2.7,0,1.5-.1,2.9.6,4.3.8.9-1.1,1.8-1.6,1,1.1-.1,1.3-.3.9-.9-4.7-1-7.3,2.2-11.7,2.7-.4,0-.7.1-1,.5-2.7,3.6,3.4,1.2,3.9,3.6-1,.8-1.2.3-2.1,0-1.4,0-2.7.5-1,1.6-1.1,1.6-1,2.2-3.2,2.4.9,1.3.7,3.2,1,4.7-1.5.3-2.6,1-2.6,2.6-.7.1-1.4-.2-1.9.5-1-.8-2.1-.9-3.2-1-.6-.4-1.9-1.4-3.4-2.1l.8-3,2.4-1.5-1.2-2.5c2.8-9.3,3.6-9.9,5-10.1v-.3c0,0-5-1.6-5-1.6v.3c1.2.9,1.6,2.4,1,4.2-1.3-.6-2.1-1.9-2-3h-.3c0,0-1.7,5.5-1.7,5.5h.3c.7-.9,1.8-1.4,3.2-1.2-1.6,4.9-8.6,3.4-7.4-.8.9-1.7,2.6-.6,1.8,1.2,4-1.4,1.6-7-1.8-3.6,1.1-2.3,1.7-4.1.3-6.3-1.8,1.2-2.3,3.3-1.9,6.1-2.2-5.1-6.1.1-3,2.8-.6-3.8,4.1-1.3.9,1.7-3,2.1-6.7-.3-6.8-4.1,1.7.1,3.1,1.2,3.3,2.5h.3l.2-6.4h-.4c-.3,1.3-1.7,2.4-3.5,2.4.1-2,1.3-3.5,2.7-3.8v-.4h-7.4v.4c1.5.3,2.6,1.8,2.7,3.8-1.8,0-3.2-1.1-3.5-2.4h-.4s.2,6.4.2,6.4h.3c.2-1.3,1.5-2.3,3.3-2.5-.1,3.7-3.8,6.2-6.8,4.1-3.2-3,1.5-5.5.9-1.7,3.2-2.6-.7-7.9-3-2.8.3-2.8-.1-4.9-1.9-6.1-1.4,2.2-.8,4,.3,6.3-3.4-3.4-5.7,2.3-1.8,3.6-.8-1.8.9-2.9,1.8-1.2,1.3,4.2-5.8,5.7-7.4.8,1.3-.2,2.5.3,3.2,1.3h.3c0,0-1.7-5.7-1.7-5.7h-.3c.2,1.2-.6,2.5-2,3.1-.6-1.8-.2-3.3,1.1-4.2v-.3c0,0-5.2,1.6-5.2,1.6v.3c1.5.2,2.3.7,5.1,10.1l-1.2,2.5,2.4,1.5.7,2.7h0s0,0,0,0c-6.8,3.2-5.3,5.3-10.5,4.7-.5,1.1-.9,2.1-2,2.9-.2-1.5-.9-3-1.9-4.1-.5-.6-1.2,0-1.9.1-1.4,3.1-2.4.3-4.9,1.9.1,1.4.3,2.9,1.1,4.2-1.7,0-3.3-.6-4.7-1.5-5.6,6.2-11.4,12.1-16.2,18.9-2.5,3.3-9.4,1.4-7.6-3.2.8-3.3,5.7-2.6,5.4.7,2.4-2.7.9-5.3-2.8-4.7,3.4-1.5,5.4,1.3,8.5-2.5-2.3,0-4.3-.7-6.7-.1,3-1.7,7,.9,9.5-4-2.2.2-4.2,1.1-6.4,1.5,13.6-12.9.5-13.5,2.2-19.1-1.1.9-1.7,1.8-1.2,3-3.1-1.3-7.6-.9-8.8-4.6-.3,5.2,2,4.9,6,5.9-1.8-.2-3.7-.2-5.4-.9.4,2.3,2.2,2.8,4.3,2.6-2.1,1.1-1.6,4.1.5,5.1-1.3-7.6,10.1-5,4.9,2-2.4,3.6-5.9,6.2-8.9,9.4-.6-1-1.2-1.9-2.4-1.8,2.2,2.6-.3,5.4-.9,8-.9,3.3,2.1,6.1,5.2,6.4-1.2,1.5-1.3,2.8-.4,4,.9-4.8,8-3.7,8.7-8.9.1-.6.4-1.1,1.1-1.4-3.2,3.6,4.5,11.1-2.7,11.9-1,0-1.3,1.1-.7,1.9-3-.1-3.8,1-4.2,3.7l3.7-1c-1.3,3.3-4.2-.2-3.7,5.8,1.2-.6,2.3-1.2,3.4-1.8,1.1,3.3-5.4,1.9-.5,7.2.5-1.3,1.3-2.5,2.2-3.5-.6,1.7-.5,3.6,1.5,4.4l.3-1.2h.1c.3,1.1.3,2.6,1.4,3.3.4.1.6.3.7.7.2.6.8.8,1.3.9.7.1.9-.6,1.4-1,.1.9,1.2,1,1.7,1.8.4-4.3-5.4-2.8-4.1-5.6.5,1.7,2.2,1.4,3.3,2.1.5.7,1.5,1.3,2.1.3l1.5,1.1c-1.1-5.1-3.8-2-5.5-4.7,1.2,0,2.4,1.8,3.7.6.7.7,1.2,1.5,1.7,2.3.2-1.5-.4-3-1.7-3.8-1.5-.9-3.5.7-4.7-1.1-1.7-2.1-1.7-5.1-.8-7.5.8-1.9,3.1-2.6,4.2-4.4-.3,1.6-.1,4.3,1.6,4.8-.4-2.9,1.7-5.5,2.1-8.4.6-.7.6-1.3,0-2-.9-1.5-1.1-3.2-2.1-4.6-1.5-2.1-3.4-2.2-.3-4.4-1.9,2.9-.3,1.8,1.3,4.6.3-.9,1.7-2.1,0-2.1-2.8-1.3,3.6-4.8,5-4.9,1.4-.1,3.4,0,4.5-1.3-.7-1.2-1.3-1.4-.2-2.7-.8-.4-1.5-1-1.6-2l-2.1.7c.7-.8,2.7-2.3,2.9-.6,0,1,1,1.2,1.8,1.4-.6.8-1.5,1.6-.6,2.5.6.6.9,1.8,1.9,1.9l.7-2.7c2,2.1-2,3.2,3.5,5.1-.2-1.1-.3-2.2-.2-3.4,2.6,2.2-1.2,3.6,4.9,4.3-.7-.8-.8-1.7-1.1-2.6,1,.2,1.8,1.1,2.5,1.9.6,1,1.1,1.5,2.5.5,0,.2,0,.4.2.5.6.5.4,1.1.4,1.7h.2c.9-.9.9-1.8.6-2.9-.6-2-3.1-.4-3.9-2.5,1.2.8,2.3,1.2,3.6.6.7.7,1,1.2,1.4,2.1.6-2.2,0-4.4-2.4-3.7-.7.3-1,.2-1.7-.4,1.1.4,1.8-.2,2.5-.7.1.2.2.4.3.4.6,0,1.1.4,1.5.9.2-1.8-1.6-3.3-3.5-2.9-.5,2.3-2.4,1-3.9.7-2.3-1.4-3.6-4-5.7-5.7.2-2.3-1.6-4.3-3.9-4.4-.2,0-.4,0-.6,0,2.3-1,5.1,1,5.2,3.3,0,1,.7,1.6,1.3,2.3,7.8-15.5,33-19.6,47.5-9.7,1.2,1.1,2.6,2,3.8,3.2.5-1.5.2-3.3,2.4-2.4l.4-.3c-.4-1.1.2-2.3,1.4-2.7.1,0,.3,0,.5,0v1c-.6.1-1,.7-.9,1.3.4-.1.9.5.6.9.4.2,1,.1,1.3-.2h1.1c-.5,1.3-2.3,1.7-3.3.8.2.3-.7,2.9-.7,3.2-.1.4-.5.6-.9.6l.4.7c.6-.3,1.5-.3,1.4-1.2.1-.5-.2-2.8.5-2.6.3.9-.3,1.9.4,2.8,2.1-.5,1.2-2.4,3.7-2.9,1,0,3.1-.6,3.7.4-2.2-.6-5.1,0-5.6,2.5-2.3.5-4.2,2.2-6.7,2.2-2,.1-2.5,2.4-2.6,4-.3,1.8-.4,3.7-1.2,5.4-.4.6,0,1.4.1,2,.7.4,1.3,2.9,1.4,3.9,0,1.7,2.9,2.2,4.1,3.3.3-2.1-3.7-1.5-3.1-4.4.7,1.9,2.3,2.3,4,3.3-.5-2-.7-5.2-3.5-4.8-1.1-1.5.5-1.5,0-3.3.8.2,1.2.5,1.4,1l-.8-.3c0,1.2,1.2,1.5,2,2.4-.1-2-.3-3.3-2.2-4.3-1.1-1,.2-3.2,0-4.6,0-.4,2.6-1.7,2.9-1.6,1.9.2,3.9,0,5.8.4,1.9.6.3-3.4,3.3-1.3-2.2-.6-.9,1.7-2.4,1.8-1.1,0-2,0-3.2-.1,3.9,8.7,12.7,6.1,15,13.8,2-1.7.6-1.7,0-3.6,4.5,3-4.2,6.4-.9,11.7-.2-.6,1.8-3.1,2.1-3.5.4-.6,1-.6,1.4-.2l.7-1.3c-1.2-.7,1-3.5,1.2-4.3.2-.5.7-.7,1.2-.5l.6-1.7c-1.2-.3-.3-3.1-.4-3.8-1.6-1.5-2.9-3.3-4.2-4.9h.8c0,.3,0,.7.4.9.6.2,2.7,2.3,3.3,1.8l.3.9c-.5.1-.6.9-.6,1.4.3.2.6.5.9.7,0-.2,0-1,.2-1.1.3.3.7.3,1,0,.3.1,0,1.9,0,2.2.3.3.6.7.9,1-.1-.8.9-3.9-.5-4.1h0ZM127,237.4h.9c-.6-.5,0-1.1.5-.7,1.1.9-1.2,2.3-1.3.7ZM81.6,245.6l-2.4-1.5,1.3-2.5,3.4,1.2-2.3,2.8h0ZM89.4,243.7c-3.7.8-4.5-3.3-.8-4,3.7-.7,4.5,3.3.8,4ZM97.8,243.4l-3.7-2.6,3.7-2.6,3.7,2.6s-3.7,2.6-3.7,2.6ZM109.6,242.2c-.4,2.6-6.3,1.5-5.8-1.1.4-2.6,6.3-1.5,5.8,1.1h0ZM111.8,242.8l3.5-1.2,1.3,2.5-2.4,1.5s-2.3-2.8-2.3-2.8ZM140.1,230.9c.7.7,1,1.6,1,2.5-.7-.2-.9-.9-1-2.5ZM137,235.7c-.9.6-1.7,1.5-2.6.3h-.6c1.4-2,1.3-1.6,3.3-.3h0ZM129.4,243.3c.6.2,1.2.5,1.8,0-.6,0-.8-.4-.9-.8-.3-2,3-1.3,4.2-1.2,3.1,1.9,8.3.7,6.5-3.7,1.4.9.9,3.3-.1,4.2-2.8,1.5-5.5.4-8.4,3.4-.4-1.4-2.1-1.3-2.6.2h-1.2c0-.7.6-1.3.8-2ZM140.2,256.4l-.4.5c-2.4-2.7-10.4-5.7-13.8-5.2v-.6c0,0,0,0,0,0l1.3-.8-1.1-.9c0-.1-.7-4.6-.7-4.6h2c0,0-.7.7-.7,1.4.1,0,.2.2.3.3.4-.2.8-1,.8-1l.2,2.7s-.5-.8-.9-.9c0,0,0,.2-.1.3.6,1.8,3.2,1.9,3.2.3,0-.8-1-.6-.9.2-1.4-1.1.5-2.9,1.3-1.1,0-1,0-1.6.8-2.1.5.7.5,1.3-.1,2.3,1.7-1.6,2.4,1.1.8,1.5.8-1.4-1.5-1-.7.5.8,1.2,2.6,1,3.3-.3,0,0,0-.2,0-.2-.7-.1-1.6.4-1.6.4l.9-2.5s.4,1,.9,1.4c.1,0,.2-.2.4-.2.1-.6-.6-1.7-.6-1.7l3,1.2s-1.2.3-1.6.8c0,.1.1.2.1.4.6.1,1.7-.4,1.7-.4l-1.1,2.4s-.3-1-.9-1.4c0,0-.2,0-.2.1-.3,1,.3,2.1,1.3,2.3.3,0,.6.1.9,0,1.7-.5.3-2.4-.1-.8-.9-1.4,1.5-2.9,1.7-.6.3-1.1.7-1.6,1.6-1.8.2.9-.1,1.4-.9,2.1,1.9-.8,2,1.8.1,1.7.6-.6,0-1.2-.5-.7-1.1,1.1.9,2.7,2.5,1.9,0,0,0-.2,0-.3-.4-.3-1.3-.3-1.3-.3l2-1.4s-.2.9,0,1.3c.1,0,.3,0,.4,0,.4-.4.4-1.5.4-1.5l1.5,1.8s-3.6,1.7-4.3,2.2h-1c0-.1.5,1.3.5,1.3,0,0,0,0,0,0ZM148,263.7c-.5,0-.8.4-.7.9,0,0,0,0-.1,0l-2.1-1.5c-.1-.1-.2-.3-.1-.4.4,0,.8-.2.8-.7.2.2,2.5,1.4,2.3,1.8Z"/>
    <path class="st2" d="M122.2,253.5c-.2-.2-.2-.5,0-.7-.3,0-.7,2.3-.8,2.5.2.2.3.3.5.5.2,0,.6.2.7-.1l.6-2.1c-.3.2-.7.3-.9,0h0ZM90.1,313c-6-2.4-10.4,3.4-5.5,4.4-5.4.2-4.4-7.3-6.6-6.9,2,2.1,2,6,3.8,7.1,3.6,1.5,7.4,1.8,11.3,1.6-2-1.7-2.4-3.9-3-6.2ZM108.5,317.3c4.9-1,.6-6.8-5.5-4.4-.5,2.3-1,4.5-3,6.2,3.9.2,7.7,0,11.3-1.6,1.8-1.1,1.8-4.9,3.8-7-2.2-.5-1.2,7.1-6.6,6.9ZM148.1,270.6c0,.1,0,.2.1.3.3-.2.7-.1.9.1.3,0,.2-1.1.3-1.3-.4-.4-.7-.7-1.1-1.1l-.2,1.9h0ZM146.6,277.7c0-.3,1.5-2.8,1.2-3-.3,0-.6,0-.7-.3-.4-.2-1.3,2.6-1.5,2.7.5-.3,1.1.2.9.7,0,0,0,0,.1-.1h0Z"/>
    <path class="st2" d="M163.9,266.2c-1.3.4-1.8,1.4-2.3,2.6-3.2-4.9-9.2-8.3-10.1-14.3.7-4.8,7.1-3.7,5.8,1.3,3.3-1.8,1.7-5.1-1.4-5.7,3.4.3,5.3,3.1,7.6-1.6-2,.7-5.1.2-6.1,0,4.2-.6,6.6-.5,6.4-5.8-1.4,3.1-5.4,3.2-8.4,4.2.2-1.4-.3-2.2-1.4-2.7,1.2,7.6-13.5,5.1,2.6,21.6-2-1.1-4.3-.7-6.2-1.9,1.5,4,4,3.3,7.3,4.7-3.5,0-4.6,3.4-2,5-.7-2.6,3-4.4,4.8-2.4,4.2,5.3-3.5,12.7-10.2-.6,0,.7-.5,1.4-1.2,1.2l-.8,2.1c1.5.6-.8,3.5-1,4.4-.3.6-.9.7-1.3.4l-.7,1.5c.9.9-1.6,3.3-1.9,4-.3.4-.8.6-1.2.3l-.3.6h0c1.7,2.1,2.5,3.7,2,5.8,1.4-1.2,2-4.4.9-6.2,1.3,1.3,3.1,2.2,3.8,3.9.8,2.9,0,6.1-1.9,8.4-.9.9-.6,1.3-.8,2.4-.6,1.7-2.6,1.8-3.4,3.3-.5,1.3-1.4,2.3-1.8,3.6,2.3-.4,1.9-3.6,4.1-4.2-.9,1.4-1.8,2.6-2.4,4.1,1.8-.5,5.3-1,4.7-3.5-.4-1.2.7-2,.7-3.1,1.5-.5,1.1-1.1,1.8-2.2.3.7.3,1.3.3,2l-.4-.9c-1,1.4-.2,2.7-.3,4.2,5.1-4.5-1.7-4.5,3.6-14.5,1.2-2-3.5-1.8-3.8-6.3-.3-1.9,1.4-3.5,1.8-5.4,2,3.6,9.1,3.5,8.2,8,1.4-1.1,1.4-3,.8-4.5,7.3-2.6,1.5-9.3,3.9-14h0Z"/>
    <path class="st2" d="M142.1,283.4c.2,0,.3.2.4.3.1,0,.3,0,.3-.1,0-.2,1.9-2.5,1.7-2.7-.2,0-.4-.2-.4-.4-.2-.2-.4-.2-.6,0,0,.3-2.1,2.6-1.6,2.8,0,0,.2,0,.3,0ZM141,283.9h0c0,.1,0,0,0,0h-.1c0,0,0,0,0,0ZM70.2,294c.7.1,1.5.3,2.3,0l-3.3-5.6c-2,2.4-5.4.9-7.5-.5-1.7-1.3,2-3.3.8-7.5,1.7,2.7-1.4,5,3.3,6.5-1.4-2-1.2-4.6-1.7-6.9,0-.4-.3-.8,0-1.2.2-.6.2-1.3-.6-1.4-5.3-3-4.2-1.5-9.3-2.2-1.3,2.2,1.4,4.2,1,6.3-.4,1.1,1.2,1,1.2,2,.4,1.6.2,3.8-1.7,4.5-.9.6-.2,1.7.6,2-1.6,2.9-.4,3.4,2.1,4.8,0-1.1,0-2.1.5-3.1,3.5,2.3-1.7,2.6,5.1,5.4-.7-1.1-.7-2.4-.8-3.5l1.9.4c.7,3.1,2.5,3.4,5.5,3.1-1.1-1.1-1.4-2.4-2.2-3.5.9.3,1.8-.3,2.6.4ZM131.7,276.6c-.9.1-1.2.5-1,1.5-1,2.2-1.1,4.9-2.9,6.8,3.8-1.1,3-2.5,3.9-5.4-.2,3.9,0,3.8,1.4,6.5-2.9,2-7.8.3-9.4,4.3.4.5,1,0,1.6.1-.4.5-.5,1-1.2,1.4l.3-.9c-1.1-.4-2,2.1-2.8,2.9,7.9-1.6-.9-3.9,14.6-5.6,2.7-1.3-2.6-3.3,2.8-6.7.5-1.8.8-3.7,1.8-5.4.2-.5-.1-1.3-.6-1.7-2.4,1.6-3.5-1-8.6,2.1ZM52.1,244.5v-1.6c.1,0-1.6-.3-1.6-.3.6-.5,1.5-.7,2.3-.4-.6,2.5.5,4.3,3.2,4.4.8-1.2,1.6-1.4,2.4-.6-3.6-.4-.9,3.4.9,2.1.5-.7,2-1.3,1.6-2.3-2.9-2-2.6,1-3.2-4.1h-.4c-.3.9-1.2,1.7-2,.8-.3-.3-.5-.6-1-.7,2-1.5,4.3.7,4.1-2.9,2.2,2.7,2.4-.3,4.5-.3-.1,2.1-.5,2-2.4,1.8.6.5,2.9,2.8,1.6,3-.6-1.4-1.5-2.8-3.1-3.1-1.3,1.3-.7,2.7-.5,4.2,1.2-.4,2.1-1.1,3.3-1,.4,1.2-1.5,1.8-.4,3,1.9.3,3.9.3,3.3-2.3-.6-.4-1.2-.6-1.8,0,0-1,1-1.2,1.8-1,1.7-1.8,1.1-4.2-.7-5.6.5-.7,1-1.2,1.9-1.4-.3.6-.9.8-1.1,1.4l1.2,1.4c1-.4,1.2-2,.6-3.5-1.2.3-3.4,1.3-3.4,1.3-1-.4-.6.1-.4.6-3.3.6-6.6,1.5-9.3,3.7-.5.3-.7.1-.9-.5-.3-.5-.5.3-.5.6,0,0-2,.5-2.9,1.2.6,1,1.5,2.6,2.9,2.1h0Z"/>
    <path class="st2" d="M65.3,243.5c.3,1.5-.1,2.8-1.1,3.9,1.5,2.6,4,4.6,5.1,7.5,2.5-4.6-.2-6.1-3.6-8.7,2.2.8,4.4,1.5,5.6,3.6.3-3.9-1.5-5.9-5.4-6.5v-.2c1.6,0,3.3,0,4.8.9-.4-1.2-1.4-3-2.9-2.9.5-1.1.5-1.8,0-2.5-.3.8-.7,1.2-1.5,1.3.1,1.3-.2,2.5-1,3.5ZM53,252.5c.5,1.1,1.1,2.4,2.3,2.8-.6-2.2.9-4.1,1.6-6,0,4.5-2.6,7,3.7,8.6-1.7-2.7-.6-5.9-1.6-8.6-1-.6-2.2-.7-2.8-1.6-.2-.4-.5-.5-.9-.6-1.2-.3-2.3-.6-2.9-1.6-.9.3-1.4.2-2.2,0,0,1,.8,1.9,1.9,1.6-.9,1.3-.4,2.4,0,3.7.6-1.2,1.5-2.1,2.7-2.8-.8,1.4-2.3,2.8-1.6,4.5h0ZM78.2,298.7c.9-.8-.3-1.2-.7-1.8-7.6-7-10.4-16-9.7-26.1l-.8-.4c-1.3,10.7,2.9,21.4,11.3,28.3h0ZM145.7,240.7c-.7,1.4,1.4,1.9,1.4,3.2l-1.5-1.2c-.7,2.5,2.4,3.4,3.3,5.4,1.2-3.7.6-6-3.1-7.4h0ZM62.6,251.7c-2,.1-1.7-2.4-2.3-3.8l-1,1.1,1.3,4.2.9-.6c1.4,1,2.7.3,3.1-1.2.4.1.8.3,1.1,0l-1.9-3.9c-.4,0-.8-.5-1.3,0,.5,1.2,2.1,3.7,0,4.3ZM145.4,234.5v.2s-2-.1-2-.1c.7,2.2,3.3,1.2,5,2.2-1-1.8-1.6-3.6-3.9-3.9.2-1.1,0-2.1-.7-2.5,0,.9-.4,1.6-1.3,2-.4,1.9,1.5,1.8,2.8,2.2ZM144.8,247.5h-.1c-.5,2,.9,3.8,1.8,5.4,1.5-2.6,1.5-5.7-1-7.8-.7,1.4.3,2.8.7,4.1h-.1c0,0-1.2-1.7-1.2-1.7ZM144.2,236.3c.9,2,2.2,1.6,3.1,2.9-.8-.2-1.4-.5-2.1-.7,0,2.2,2.7,2.4,4.2,3.2-.3-3.5-2-4.8-5.3-5.4ZM136.3,232.6c.9,0,2.3.6,3.1,0,0-3-3.6-2.6-5.7-2.6.6,1.1,1.4,2.2,2.6,2.6ZM125.9,274.8l-2.4-.2v1c.6.1,1,.2,1.4.3.1,2.4-1.2,2.5-3.1,1.5-.6,3.1,4.5,2.8,4-2.6h0ZM124.2,264.9c-2.8,3.4-2.8,3.9,1.4,5.3v-.9c-.9-.2-1.7-.6-2.5-1l1.5-1.9s-.5-1.5-.5-1.5ZM111.2,252.7h1.3c.4-1.7-.5-1.9-1.6-2.8-.5,1.4-1.7,2-2.4,3.2,1,0,1.9-.5,2.4-1.3l.3.9ZM117.6,260.1c.4-1.1,2.5-3.8,1.4-4.6-.5.3-1.6.2-1.5,1,0,1.2,0,2.4,0,3.6h.1s0,0,0,0ZM138.4,229.8v-.2c-1-1.7-1.6-2-3.6-2,0,2,2.1,2,3.6,2.2ZM133.1,224.8c0,1.4,1.1,2.2,3.1,2.1-.5-1.4-1.5-2.2-3.1-2.1h0ZM128.4,239.6c-1.6-.7-2.9.2-4.6-.1.5,2.2,3.2.6,4.6.1h0ZM131.6,222.6c.4,1.4,1,1.7,2.5,1.5-.5-1.2-1.2-1.6-2.5-1.5h0ZM132.3,221.8c-.6-1.2-.9-1.4-2.1-1.3.5,1.2,1.2,1.7,2.1,1.3ZM124.9,261.5l1.2,1.9c1.5,0,.2-1.2-.1-1.8-.2-.2-.6-.2-.9-.3,0,0-.1.1-.1.1ZM120.6,263.2c.8-.4,1.5-.8,2.2-1.3l-.5-.6c-.7.6-2.2.8-1.8,2h0ZM130.5,219.9c.2-.8-.9-1.8-1.7-1.5.1.9,1,1.6,1.7,1.5ZM55.6,233.1c.4-.4-.2-1-.6-.6-.4.4.2,1,.6.6ZM56.1,234.2c.4-.4-.2-1-.6-.6-.4.4.2,1,.6.6Z"/>
    <path class="st2" d="M53.2,229.1h-1c0,0,.5,1.4.5,1.4l.7-.8h.1c0,0,0,1.8,0,1.8.2,1.5,2.5.6,1.6-.6l-1.1-1.3s0,0,0-.1h1.1c0,.1-.5-1.2-.5-1.2l-.8.6s0,0-.1,0v-1.2c0,0-1.4.5-1.4.5l.8,1s0,0,0,.1ZM50.4,235.8c.6,0,.6-1,0-1-.6,0-.6,1,0,1ZM50.3,237.1c.6,0,.6-1,0-1-.6,0-.6,1,0,1ZM52.4,232.8c.6,0,.7-1,0-1-.6,0-.6,1,0,1h0ZM50.8,234.7c.6,0,.7-1,0-1-.6,0-.6,1,0,1h0ZM56.8,235.9c0-.5.3-1.4.3-1.4l-2,.8s.9.5,1.2.8c-.4.1-.8.2-1.4,0l.8,1.5c.2-.7.5-1.1.8-1.1.8,1.3-1.3,2.7-2.2,1.6-.3-.5,0-1,.6-.6,0-1-.9-1-1.2-.3,0-1-.2-1.6-1.3-1.9-.3,1,0,1.6,1.1,2-.6,0-1.2.5-.4,1.2,0-.6.5-.7.8-.3.5,1.1-.9,1.6-2,.4.3,0,.5,0,.9,0l-1.1-1.3c0,.5,0,.8,0,1-.2-.3-.3-.5-.4-1l-.8.7c1.1.7,2,1.7,2.7,2.7,1.4-1.4,7.1-3.7,9.3-3.6-.2-1.3-.2-2.6,0-3.8h-1.1c.3.5.4.7.4,1-.3-.2-.6-.4-.8-.7v1.7c.4-.3.5-.5.8-.6,0,1.6-1.3,2.2-1.8,1.1,0-.5.3-.8.8-.4,0-1-.7-1-1.1-.6.4-1,.3-1.6-.6-2.2-.6.9-.3,1.5.4,2.2-.7-.3-1.3.2-.7,1,.1-.6.7-.5.8,0,.1,1.4-2.4,1.8-2.7.3.2-.1.8,0,1.4.3l-.5-1.7c-.2.6-.6.8-1,1h0ZM83.4,288.1l2.4,1.3c-1.9,2.3,1.5,3.3,1.3,1,1.3.5,6.3,2.1,4.3-.9-6.6.2-9.9-6.6-6.3-11.8,2.2,1,10-2.7,9.3,1.1.4.4.5.5,1.4.5,2.2-5.1-5.5-3.6-8.3-3-2.5.7-4.7-2.9-6.9-.9-.9.8-.3,2.5.9,2.5,1,0,1.3-1.4.4-1.8,2-.7,1.1,2.6.3,3.4-2.3-1.2-2.7,2.5-.4,1.6.1.7.1,1.3,0,2-2.5-.5-1.9,3.1,0,1.6.5.5.8,1.3.9,2.1-2.5.3-.5,3.6.7,1.4h0Z"/>
    <path class="st2" d="M90.7,292h-.3c-.2.3-.5,1.2,0,1.5l2.1.9,2.7-2,.7-10.8h-.8c-.2,0-1.7,12.6-2.5,11.8.1-.8,2-11.8,2-11.8h-.8c0-.1,0,.5,0,.5l-3-3.9-.4.2,3.2,4.2-.2.7c-.3-.2-3.4-4.5-3.7-4.9h-.6s4.2,5.4,4.2,5.4l-.2.7-4.7-6.1h-.6l5.1,6.6-.3,1-5.6-7.5h-.7s6.2,8.1,6.2,8.1l-.2.7-6.8-8.8v.7c-.1,0,6.2,8.3,6.6,8.8-.3,1,0,1.1.4,1.9.2.9-.4,2.4-1.5,2.1h0Z"/>
    <path class="st2" d="M91.4,288.6l-6.5-8.6s-.1.4-.2.6l6.3,8.2.5-.2ZM84.8,282.9c1.5,1.9,3,3.8,4.5,5.7.2,0,.6.1.6.1l-5.3-7s0,.7.2,1.2h0ZM96.2,279.7c-.7,0-1.5-.2-2.2-.3-1.4,1.2.2,1.9,1.2,1.8.9.2,2.1-.9,1-1.5ZM96,310.3c-.2,1,1.3,1.3,1.5.3.2-1-1.3-1.3-1.5-.3ZM97.4,304.5c.3-1.2-1.7-1.6-1.9-.4-.3,1.2,1.6,1.6,1.9.4h0ZM90.8,301.3c.3-1.2-1.6-1.6-1.9-.4-.3,1.2,1.6,1.6,1.9.4h0ZM101.3,313c-.8,4.3-2.9,6.3-4.7,6.3s-3.9-2-4.7-6.3c.2.2.5.5.7.9l.4.5.6-.3c.2-.1.5-.3.7-.4-.2.5-.3,1.1-.2,1.7.2,1.3,1.3,2.2,2.5,2.2,1.2,0,2.3-.9,2.5-2.2.1-.6,0-1.2-.2-1.7.2,0,.5.2.7.3l.6.4.4-.5c.3-.3.5-.6.7-.9M102.2,311.8c-1.1.1-1.6.8-2.2,1.6-.5-.4-1.2-.6-1.8-.6-.3,0-.7,0-.9.3,2,.8,1.3,3.8-.7,3.8s-2.6-3-.7-3.8c-.3-.2-.6-.3-.9-.3-.6,0-1.3.3-1.8.6-.6-.7-1.1-1.5-2.2-1.6.6,5.5,3.1,8.2,5.6,8.2s5-2.7,5.6-8.2ZM84.2,297.5c.8-1-2.1-2.3-2.5-2.8-.3-.2-.8-.2-1,.1-.8.9,2,2.3,2.4,2.8.4.3.9.2,1.1,0h0Z"/>
    <path class="st2" d="M83.9,299.7c3.2,0,2.8-5.1-.4-4.5,1.5.8,2.8,2.9.5,3.5-.9.2-1.7-.7-2.4-1.2,0,1.2,1,2.2,2.3,2.2h0Z"/>
    <path class="st2" d="M79.3,300.5c.7,1.3,4.9,5,6,3.2-2-1-5.5-3.5-4.1-6.7-3-1.8-.3-4.7,2-2.2,2.5-1.5,5.2-.4,7.7,1.2.9-1.9-3.4-3.2-4.4-3.7-1.2-.4-5.2.5-6.5.5-.9.1-1.5.9-1.5,1.8.2,1,.2,5.1.9,5.8ZM115.9,228.9l1.8.6c-2.8-6-8.2-10.5-14.6-12.2-.2.4-.3.9-.4,1.3,5.6,1.4,10.4,5.2,13.2,10.3ZM78,229.5l1.8-.6c2.8-5.1,7.6-8.8,13.2-10.3-.1-.5-.3-.9-.4-1.3-6.4,1.7-11.8,6.2-14.6,12.2h0ZM111.7,219.7c1.3,0,1.3-2,0-2-1.3,0-1.3,2,0,2ZM107,217.1c1.3,0,1.3-2,0-2-1.3,0-1.3,2,0,2ZM104.5,216.2c1.3,0,1.3-2,0-2-1.3,0-1.3,2,0,2ZM109.4,218.3c1.3,0,1.3-2,0-2-1.3,0-1.3,2,0,2ZM113.7,221.4c1.3,0,1.3-2,0-2-1.3,0-1.3,2,0,2ZM119,228.9c0,1.3,2,1.3,2,0,0-1.3-2-1.3-2,0ZM117.8,226.6c0,1.3,2,1.3,2,0,0-1.3-2-1.3-2,0ZM115.6,223.3c1.3,0,1.3-2,0-2-1.3,0-1.3,2,0,2ZM116.3,224.3c0,1.3,2,1.3,2,0,0-1.3-2-1.3-2,0ZM84,219.7c1.3,0,1.3-2,0-2-1.3,0-1.3,2,0,2ZM81.9,221.4c1.3,0,1.3-2,0-2-1.3,0-1.3,2,0,2ZM75.7,229.9c1.3,0,1.3-2,0-2-1.3,0-1.3,2,0,2ZM86.3,218.3c1.3,0,1.3-2,0-2-1.3,0-1.3,2,0,2ZM78.4,225.3c1.3,0,1.3-2,0-2-1.3,0-1.3,2,0,2ZM76.9,227.6c1.3,0,1.3-2,0-2-1.3,0-1.3,2,0,2ZM91.2,216.2c1.3,0,1.3-2,0-2-1.3,0-1.3,2,0,2ZM80.1,223.3c1.3,0,1.3-2,0-2-1.3,0-1.3,2,0,2ZM88.6,217.1c1.3,0,1.3-2,0-2-1.3,0-1.3,2,0,2ZM99.6,226.4h1.3c0-4.2.6-7.9,1.7-10.3.4-.8-.9-1.3-1.2-.6-1.6,3.5-1.8,8.3-1.8,10.9h0ZM94.7,226.4h1.3c0-2.6-.2-7.4-1.9-10.9-.4-.8-1.6-.2-1.2.6,1.1,2.4,1.7,6.1,1.7,10.3h0ZM97.8,226.4c1.4,0,1.4-2.2,0-2.2-1.4,0-1.4,2.2,0,2.2ZM97.8,223.7c1.4,0,1.4-2.2,0-2.2-1.4,0-1.4,2.2,0,2.2ZM97.8,221c1.4,0,1.4-2.2,0-2.2-1.4,0-1.4,2.2,0,2.2ZM97.1,218.3c.5-.2,1.1-.2,1.6,0,1.6-2.4-3.1-2.4-1.6,0Z"/>
    <path class="st2" d="M98.7,216c1.2-2.3-3-2.2-1.7,0,.5-.3,1.2-.3,1.7,0h0Z"/>
    <path class="st2" d="M97.2,206.9c-.2,1.4-.9,2.5-1.8,2.6v.3h1.8c0,0-.2.1-.2.2-3.2.7-3.5,5.5-.5,6.6-1.2-1.1-.3-3.3,1.4-3.2,1.7,0,2.6,2.1,1.4,3.2,3-1.1,2.7-5.9-.5-6.6,0,0-.1-.2-.2-.2h1.8v-.3c-.9-.2-1.6-1.2-1.8-2.6,1.4.2,2.5.9,2.6,1.8h.4v-4.9h-.3c-.2.9-1.3,1.6-2.7,1.8.2-1.4.9-2.5,1.8-2.6v-.4h-5v.3c.9.2,1.6,1.2,1.8,2.6-1.4-.2-2.5-.9-2.6-1.8h-.4v4.9h.4c.2-.9,1.3-1.6,2.6-1.8h0ZM141,283.9h0l-.3-.6c0,.2.1.4.3.6ZM140.2,286c-1.4-.9-2.2,3-2.7,3.6-.3.6,0,1.2.5,1.3l-1,2.1c-.6,0-1,.3-1,1,.2.8-.6,4.4.9,4.5v1c-3.6.6-3,6.2.6,6.1,3.6,0,4.2-5.4.7-6.1v-1c.6,0,1-.3,1-1-.2-.8.6-4.3-.7-4.5l.8-1.6c1.3.7,2.1-3,2.6-3.7.2-.5,0-1.1-.4-1.3l.6-1.2c-.2-.2-.5-.7-.8-1.3,0,0-.9,1.9-.9,1.9ZM139.5,302.5c-.9,4.9-7.3,0-2.7-2,.2.5.9.5,1.2,0,.9.3,1.5,1.1,1.5,2ZM138.1,297.5c0-.7-.8-1.1-1.2-.5.1-.3-.3-3,.3-3,.2.1.5.2.7,0,.2,0,.3.2.3.4v3.1ZM140.8,287.6c-.2.2-1.2,3-1.5,2.9-.1-.2-.4-.4-.7-.3-.1,0-.2-.3-.1-.5.2-.2,1.1-3.1,1.5-2.9.1.3.5.5.7.4,0,0,.1.2,0,.4h0ZM68.7,279.7l.3,1.2,5.6-.7-.3-1.1c-.3,0-3.8.6-3.8.6,0,0,3.3-3.8,3.2-4.3l-5.6.6v1c.1,0,3.4-.5,3.4-.5,0,0-2.8,3.1-2.9,3.1ZM70.7,286.8c2.7,2.6,6.9-1.5,4.1-4.2-2.7-2.6-7,1.5-4.1,4.2ZM71,284c1.2-2.1,5.1-.9,3.5,1.6-1.2,2.1-5.1.9-3.5-1.6ZM74.4,292.8l.9,1.3c1.3-1.4,2.8-2.5,4.5-3.3l-.9-1.3c-.5.6-1.1,1.2-1.8,1.6l-1.5-2c.6-.5,1.4-1,2.1-1.2l-.9-1.3c-1.3,1.4-2.8,2.5-4.5,3.2l.9,1.3c.5-.6,1.1-1.2,1.8-1.6l1.4,2c-.6.4-1.4,1-2.1,1.2ZM73.9,273.6v-1.2c-1.5.3-4.1.3-5.7,0v1.2c1.5-.3,4.1-.3,5.7,0ZM114.4,297.4c3.4-1.5,2.6-4.8-1.2-3.3-1.6-.5.4-2.1,1.5-1.7h0s-.8-1-.8-1c-1.2.5-3.1,2.1-2.1,3.5.7.9,2.2,0,3.1,0,1.6.3-.1,1.9-1.1,1.8h0M123.7,285.7l1-3.2c-.5,0-4.9-1.2-5.3-1.5l-.9,3.1.9.8h0c0-.7,0-1.5.3-2.4l1.7.5c-.2.5-.5,1.6-.7,1.9h.8c0,.1.5-1.7.5-1.7l1.6.5c-.2.6-.5,1.1-.8,1.4l.9.8ZM121.5,290l.5-1-4.4-2.9-.5.9c.2.2,3,1.9,3,1.9,0,0-4.7.6-4.9,1l4.4,3,.5-.7-2.6-1.7s3.8-.4,4-.4ZM109.4,300.6l3-1.7c-.4-.3-2.8-4.1-2.8-4.6l-2.9,1.7v1.2h.1c.5-.6,1.1-1.1,1.9-1.6l.9,1.5c-.5.2-1.5.9-1.9.9l.5.6,1.7-1,.9,1.4c-.6.3-1.1.5-1.6.5,0,0,0,1.1,0,1.1ZM75.5,262.6c-.9-.7-2.1.6-3,.8-1.6,0-.3-1.9.6-2h0s-.8-.6-.8-.6c-1.4.7-2.5,3.8-.2,3.9.5,0,1.7-.8,2.2-.9,1.1-.2.7,1.2,0,1.6.3,0,.7,0,1,0,.6-.8,1-2.1.1-2.7h0ZM76.6,260.9c-2.5-.2-3.1-4.5,0-3.8v-1c-4-.2-3.9,6,0,5.9v-1ZM82.9,253.3h1.7l-1.2-1.9c.6-.3,1.9-.9,2.5-.8l-1.4-1-4.2,2.5.5,1.6h0c.3-.7.9-1.2,1.4-1.5l.6,1.1h0ZM95.3,252.5h0c-.8.7-1.9.4-2.8,0-2.6,1.5-5.5-2-3.4-4.2,2.2-2.6,6.6.3,4.5,3.2.7.5,1.3.9,1.7,1ZM92,251.7c2.1-.8.3-4.1-1.6-3.3-2.1.8-.3,4.1,1.6,3.3ZM96.1,250.2c0-.9.1-2.5-.3-3.3h1.9c-.3.8-.9,4.7.8,4.5.6,0,1.3-.4,1.2-1.1,0-.9.1-2.6-.3-3.4h1.9c-.4,1.8-.4,3.6,0,5.4h-1.6c0-.1,0-.3,0-.5-1.6,1.2-3.8.6-3.7-1.6h0ZM104,252.9c.3-1.3.8-3.6,1.6-4.7l-1.5-.5c0,1.4-.8,3.7-1.3,5,0,0,1.2.2,1.2.2ZM112.9,271h.9v-14.7h-13.7v14.7h12.8ZM100.6,264.3h0c0-.1.5,0,.3.3h0c.5.1.5-.6,0-.6h0s.6-.2.6-.2v-.2l-.6-.2h0c.5,0,.4-.7,0-.7h0c.2.3-.2.5-.3.2v.2-5.8h.5v-.4h5.1c.3,0,0,.4-.1.2h0c0,.5.7.5.7,0l.3.5h.2l.3-.5c0,.4.7.4.7,0h0c-.2.1-.4-.3-.1-.3h5.1v.4h.5c0-.1.2,7.2-.2,5.5h0c-.5-.1-.5.6,0,.6l-.6.3v.2l.6.2h0c-.5,0-.4.7,0,.7h0c.4-1.7.2,5.7.2,5.5h-.5v.4h-5.1c-.3,0,0-.4.1-.2h0c0-.5-.7-.6-.7-.1h0l-.3-.5h-.2l-.3.5h0c0-.4-.7-.4-.7,0h0c.2-.1.4.3.1.3h-5.1v-.4h-.5v-5.8h0Z"/>
    <path class="st2" d="M115.9,271.5c0-.3-.3-.5-.6-.4h0c-.6,2.5-.3-7.5-.3-7.1l.5.2v-1.2l-.5.2v-7.4c0-.4.7,0,.3.2h0c.7.3.9-.8.1-.8l.5-.8h-.1c0-.1-.8.3-.8.3,0-.7-1.2-.5-.9.1h0c.2-.3.6.2.2.3h-6.8l.2-.5h-1.2l.2.5h-6.8c-.4,0,0-.6.2-.3h0c.2-.6-.9-.8-.9-.1l-.8-.4h-.1c0,.1.5.9.5.9-.7,0-.5,1.1.2.9h0c.5-2.5.3,7.4.3,7.1l-.5-.2v1.2l.5-.2c0-.2.2,9.5-.3,7.2h0c-.7-.3-.9.8-.2.8l-.5.8h.1c0,.1.8-.3.8-.3,0,.7,1.2.5.9-.1h0c-.1.1-.4,0-.4-.1s0-.2.2-.2h6.9l-.2.5h1.2l-.2-.5h6.8c.1,0,.2,0,.2.2,0,.2-.3.3-.4.1h0c-.2.6.9.8.9.1l.8.4h.1c0-.1-.5-.9-.5-.9.3,0,.5-.2.5-.4ZM107.6,255.7h6.9v15.8h-14.9v-15.8h8ZM113.4,264.4h0s0,0,0,0ZM100.7,264.4h0s0,0,0,0h0ZM51.1,236.6l.3-.3c0-1.3.8-2.5,1.8-3.3,0,0-.1-.2-.2-.3-1.2.9-1.9,2.3-1.9,3.8ZM54.4,234.7h.3c-.3-1-.7-1.7-1.3-2.4-.1-.1-.4,0-.2.2.5.5.9,1.2,1.3,2.2ZM51.5,233.6c.6,0,.6-1,0-1s-.6,1,0,1ZM60.8,231.5c-.4.5-1.2-.2-.7-.7.4-.5,1.2.2.7.7ZM61.8,232.3c-.4.5-1.2-.2-.7-.7.4-.5,1.2.2.7.7ZM57.3,230.8c-.4.5-1.2-.2-.7-.7.4-.5,1.2.2.7.7ZM59.7,231c-.4.5-1.2-.2-.7-.7.4-.5,1.2.2.7.7ZM60.9,232.6h-.4c-1-.8-2.3-1.2-3.7-1v-.3c1.4-.2,2.9.3,4.1,1.3h0ZM57.2,233.5l-.3.2c-.4-.8-.7-1.7-.7-2.6,0-.2.3-.2.3,0,0,.6.3,1.5.7,2.4ZM58.5,230.7c-.4.5-1.2-.2-.7-.7.4-.5,1.2.2.7.7ZM111.3,282.9c1.4,0,4.7-1.6,2.3-2.9-1.3-.2-2.7.4-4,.7-5.2,2-2.2-.5-5.4-.2,1.1,2.7,3.8,1.3,5.9.7,0,.3-.3.4-.3.7l2-.4c.3-1.3,2.8-1.3,1.6,0-2.8,1.2-6.2,1-9.2,1.8-2,5.2-5.5,1.6-5.4,3.1-.8,0-.8.8,0,.7,0,1.5,3.9-.2,4.6-.7l.5-1c1.2.6,2-1.1,3-1.4,1-.2,2.3-1.2,3.2-.3,1,1,2.4-.5,3.2.5-.3.8.1.5.2,1,0,.5.8.5.8,0,0-.2,0-.3.2-.4.4-.6-.5-1.3-.8-1.9-.7-.7-1.9.6-2.6-.1Z"/>
    <path class="st2" d="M98.4,280.6c.2,0,.1.3.3.5,1.2,0,2.5-.2,3.7-.4.9,0,.9-.8,1.6-.9,1.6,0,2.6-1.3,4.2-1.6,1.2-.3,2.9-.8,4,0,.3.3.6.3,1,.3.5,0,1.2-.2,1.4.4l-.3.3.2.4c.3,0,.3.2.4.3.1.2.5.2.5,0,0-.3.4-.1.5-.4,0-.7-.1-1.7-.9-2-.4-.3-1.8.4-1.9-.4,1.1.2,3.2-1.2,1.7-2.1-2.4-.6-5.1.6-7.6.9-1,.2-.5-1.4-2.6-.9,1.4,2.8,4.4.8,6.7.8,0,.3-.4.2-.3.6.7-.2,1.8.1,2.2-.5.2-.8,1.9-.6,1.4.3-1.3.8-3.2.4-4.7.6-1.9.1-3.9.2-5.6.8-.3,1.1-.8,2.2-2.1,2.4-.9-.8-2.1.2-3.1-.7-.3,0-.4.2-.5.5-.5.2-.6.4-.1.7h0ZM112.1,288.1c-2.4-.3-2.1,1.4-3.3,1,.2-.3.8-.4.6-.8-1.8.8-3.7,1.3-5.4,2.1-.9,1-.6,2.8-2.6,3,0,1-1.5,1.7-2.3,1.2-.3.3-.2.4-.1.7-.3.3-.7.9,0,.9.2,0,.3-.3.6-.2v.4c.1,0,.4,0,.4,0,.3-.3.7,0,1-.3,1-.7,2.5-1.3,2.5-2.8,1.8-.8,2.9-3.8,5.3-2.7,1.2.6,1.5-1.3,2.6-1.3.3.7.4.6.8.4.7.5.6-.3.8-.7,0-.4-.3-.8-.7-.8h0Z"/>
    <path class="st2" d="M101.1,276.5c-.4,1.1,0,2.5,1,3.2,1.2-.6,1.9-2,1.5-3.3.3-.2.6-.3.5-.7-.2-.4-.9-.1-1.1-.6-.4-.6-1-.1-1.4.3-.3,0-.5-.1-.8,0-.3.5.5.7.2,1.2ZM100.8,291.9c1.2,2.7,2.9-.7,2.4-2.2.8-.6.6-1-.4-1.1-.3-.7-1.1-.8-1.6-.2-.2.2-.4.1-.7.2-.5.2-.2.8.2.9-.2.8-.4,1.6,0,2.5h0ZM104,281.8c-.2-.1-.5-.1-.7-.1-.4-1-1.2-.7-1.7,0-.9-.3-.8.4-.3.9-.4,1.1-.1,2.7,1,3.1,1.2-.5,1.6-2,1.5-3.1.4,0,.7-.5.3-.7ZM112.7,285.4c-2.2-.7-5.6,4-7.1,2.6-.3-.8-1.4-.7-2.1-.5.8.6,1.3,1.9,2.5,1.4,1.4-.3,2.5-1.4,3.7-1.9,0,.4-.4.6-.6,1,.8-.3,1.6-.5,2.2-1-.1-2.3,3.2-.7,0,.7.6,0,.9.3,1.3-.2.7-.6.8-1.6,0-2.1h0ZM107.7,290.6c-.6.1-1.3.2-1.7.9l.5.6c-.3.8-1.1.7-1.8.7l.2.5c-.3.2-.4.4-.4.8h.3c.2-.2.6-.4.7,0,1.3-.4,2.5-1.3,3.2-2.5-.4-.3-.7-.7-.9-1.1Z"/>
    <path class="st2" d="M106,286c-.3,0-.3.4-.1.5.2.2.4,0,.6,0v.3c1.2,0,2.9-1,3.6-1.9l-.7-1.1c-.6.2-1.4.2-1.7.8l.6.7c-.4.2-.9.6-1.4.3-.2-.2-.7,0-.6.2,0,0,0,.1,0,.2,0,0-.2,0-.2,0ZM101,293c-.4-.8-1.1-1.6-1.4-2.5.4-.5.2-1.2-.5-.8-.2-.4-.4-.4-.8-.3,0,.2-.1.5.1.6h0c0,.1-.2.2-.2.2-.2.5.3.7.4,1.1.5.8,1.3,2.7,2.4,1.7ZM101,279.2c0-1.2-1.4-1.9-1-3.1.1-.2,0-.5-.1-.6-.2,0-.5,0-.7,0-.5-.2-.6.3-.5.7h-.3c.3,1.1,1.4,3.6,2.7,3.1ZM98.4,283.1c.5.7.6,1.9,1.5,2.4.4,0,1,.3,1.2-.1-.3-.9-1.4-1.4-1.2-2.4,0-.2,0-.5-.2-.7-.4.1-1.3-.8-1,.3-.3,0-.4.3-.2.5h0ZM79.1,260c.2,0,.4-.2.6,0v.3c1.1.5,2.4,0,3.6-.4.5-.1.7-.6,1.2-.6,1.2,0,1.9-.9,3-1.2,1.3-.3,2.6-.5,3.9-.4,1.5,2,1.8.3,3.2,1v.6c-.1,0,.2.1.2.1-.1.5.6.8.7.2,0,0,0-.2,0-.2.8-.4-.4-2.5-1.3-2-.4.2-1,.4-1.4-.1.8-.3,1.7-.2,2.2-.9.4-.5.3-1.4-.4-1.6-1.9-.5-3.9.4-5.8.6-3.6,1-1-.8-3.9-.7,1,2.9,4.1,1,6.2.8-.1.3-.5.5-.6.8.8-.1,1.7.1,2.3-.4.3-.8,2.2-.9,1.7.2-1.8,1.7-7.4.1-9.9,1.2-.4,1.1-1,1.9-2.1,2.2-.9-.6-1.3,0-2.2-.2-.3-.3-.5-.6-.9-.3v.4c-.4-.1-.9.5-.4.7h0Z"/>
    <path class="st2" d="M82.2,255.6c-.7,1.2-.5,2.3.3,3.3,1.5,0,2.1-2,1.8-3.2l.4-.3v-.4c-.1,0-.9,0-.9,0-.5-.7-.9-.7-1.5,0-.3-.1-.5,0-.7.2.1.2.2.4.5.5ZM89.4,258.2c0,.3.2.5.3.7-.4.3-.8.3-1.3.3-.2-.2-.3-.6-.7-.5-.2,0-.1.3-.3.4-.3,0-.4.1-.5.4l.4.2c-.3,1.5,3.8,0,4.5-.5-.2-.3-.5-.6-.5-1-.2-.7-1.4-.1-1.9-.1h0ZM81.6,258.4c0-.5-.2-1.2-.6-1.5-.5-.5-.6-1.2-.1-1.7-.2-.2-.6,0-.8-.4-.3-.3-.5,0-.5.4-.9.1-.4.4-.2.8.3.8,1.3,2.6,2.3,2.3ZM94.2,264c-.4.2-1,.4-1.4-.1.7-.3,1.7-.2,2.2-.9.4-.5.3-1.4-.4-1.7-1.9-.5-3.9.4-5.9.6-3.6,1-1-.8-3.9-.8,1,2.9,4.1,1,6.3.8-.1.3-.5.5-.7.8.8-.1,1.8.1,2.3-.4.3-.8,2.2-.9,1.8.2-1.8,1.7-7.5.1-10,1.2-.4,1.2-1.1,1.9-2.2,2.2-.8-.5-1.2,0-1.8-.1,0,.2.1.4.1.6,0,.2,0,.4,0,.6.8,0,1.5-.4,2.3-.6.5-.1.7-.6,1.3-.6,1.2,0,1.9-.9,3-1.2,1.3-.3,2.6-.4,4-.4,1.5,2.1,1.8.3,3.2,1v.6c-.1,0,.2.1.2.1-.1.5.6.8.7.2,0,0,0-.2,0-.2.8-.4-.4-2.6-1.3-2Z"/>
    <path class="st2" d="M82,262.2c-.7,1.2-.5,2.3.3,3.3,1.5,0,2.1-2,1.8-3.2.2-.1.3-.2.5-.3v-.4c-.1,0-.9,0-.9,0-.5-.7-.9-.7-1.5,0-.3-.1-.5,0-.7.2.1.2.2.4.5.5h0ZM89.3,264.8c0,.3.3.5.3.8-.4.3-.8.3-1.3.3-.2-.2-.3-.6-.7-.5-.2,0-.1.3-.3.4-.3,0-.5.1-.5.4l.4.2c-.3,1.5,3.9,0,4.5-.5-.2-.3-.5-.6-.5-1-.2-.7-1.4-.1-1.9-.1ZM81.4,265c0-.5-.2-1.2-.6-1.5-.5-.5-.6-1.2-.1-1.7-.2-.2-.6,0-.8-.4-.3-.3-.5,0-.6.4-.9.1-.4.4-.2.9.3.8,1.3,2.6,2.3,2.3h0ZM94.3,270.2c-.4.2-1,.4-1.4-.1.7-.3,1.7-.2,2.2-.9.4-.5.3-1.4-.4-1.6-1.9-.5-3.9.4-5.9.6-3.6,1-1-.8-3.9-.7,1,2.9,4.1,1,6.3.8-.1.3-.5.5-.6.8.8-.1,1.8.1,2.3-.4.3-.8,2.2-.9,1.8.2-1.8,1.7-7.5.1-10,1.2-.4,1.1-1,1.9-2.1,2.2-.9-.6-1.3,0-2.2-.2l-.3-.3s0,0,0,0c0,0,0,0-.1,0h0c0,.6-.1,1.1-.3,1.6,1.2.5,2.5-.1,3.6-.4.5-.1.7-.6,1.3-.6,1.2,0,1.9-.9,3-1.2,1.3-.2,2.6-.4,3.9-.4,1.5,2.1,1.8.3,3.2,1v.6c-.1,0,.2.1.2.1-.1.5.6.8.7.2,0,0,0-.2,0-.2.8-.4-.4-2.6-1.3-2Z"/>
    <path class="st2" d="M82.2,268.4c-.7,1.2-.5,2.3.3,3.3,1.5,0,2.1-2,1.8-3.2.2-.1.3-.2.5-.3v-.4c-.1,0-.9,0-.9,0-.5-.7-.9-.7-1.5,0-.3-.1-.5,0-.7.2.1.2.3.4.5.5ZM89.4,271c0,.3.3.5.3.7-.4.3-.8.3-1.3.3-.2-.2-.3-.6-.7-.5-.2,0-.1.3-.3.4-.3,0-.5.1-.5.4l.4.2c-.3,1.5,3.9,0,4.5-.5-.2-.3-.5-.6-.5-1-.2-.7-1.4-.1-1.9,0h0ZM81,269.7c0,0-.2-.2-.2-.3,0,.3.1.6,0,.9,0,.2-.1.5-.2.7.3.3.5.4.9.2,0-.5-.2-1.2-.6-1.5ZM102.7,259c.3.2.6,1.2.8,1.3.4.5,1.2,1.8,1.9,1.5h0c.2-.1.4-.8.5-.9,0,0-.1-.1-.3-.3-.7-.6-1.2-1.2-1.2-1.8,0-.2.4-.4.4-.6,0-.6-.6,0-.8,0-.1-.2-.5-.7-.8-.5-.1,0,0,.5,0,.5,0,0,0,0-.3,0-.6,0-.7.3-.2.6h0Z"/>
    <path class="st2" d="M105.8,263.3c.2-.2.8-.7.8-.9,0-.1,0-.1.5-.2,1.1-.2,1.7-.6,2-1.8.1-.4,0-1.1-.3-1.3,0,0-.1-.2,0-.2.2,0,.6-.2.7-.4-.1-.2-.4,0-.8-.2-.3-.1-1.1-.4-1.4-.2-.2.3-1.5.3-1.3.7v.5c.1,0,.7,0,.7,0v.4h-.6c-.4.6.8.7,1.2.3.2-.3.6-.3.5,0-.2.3-.7.5-1.1.7-.5,0-.6,1.1-1,1.4-1.1.2-1.5.2-2.6-.7-.4-.5-.7-.1-.4.2-.2,0-1.2-.5-.7.5h0c-.5.8.2.6.7.8.9.3,1.8.6,3,.4h0Z"/>
    <path class="st2" d="M109.3,262.6l.5,1s1,.4,1.1.6c.6.4.5,1.5,0,1.4-.8-.3-1.3-1.5-1.9-2.2-.1-.1-.5-1.3-.8-1-3.4.7.6,1.6,0,2.9-.1.2-.5,1-.3,1.2.3.3.9.6,1.3,1,.6.5,0,1.2-.6.7-.4-.3-.9.1-.5.5,0,0-.2.2-.3.2-.4.6.3.5.6.2.2,0,0,.5.3.4.6-.1,1.6-.4,1.7-1.4.4-.9-.5-.7-.7-1.5-.2-.3-.2-1.5.2-1.1.5.6,1.1.9,1.6.4.5-.5,0-1.6-.2-2.1-.5-1-1.1-2-1-3.2.7-.8,1.5.6,2-1.6-1.6.1-3.2,1.2-2.4,3,.5,1,.4.9-.6.7h0Z"/>
    <path class="st2" d="M106.7,264.6c-.9,0-1.5-.1-1.3.9,0,.2.1,1,.3,1.2,0,0,0,.2,0,.3-.3.2-1.6-.3-1.5-.8,0-.4-.4-.4-.5-.2,0,.1-.2.1-.3,0-.2-.3-.6.1-.4.4,0,.1,0,.2-.1.2-.4.1-.3.6.2.6,1.1.5,2,1,3.3.8h0c1.4-.1.7-.4.6-1.3-.2-1,1.5-1.7-.2-2.1ZM108,279.2c0,0-.3,0-.3,0,0,.5-.5.3-.6.6,0,.2.2.3.4.3.3,0,.2.3.5.3,1.1-.5,2.5-.4,3.5-1.3-.4-.3-.5-.7-.5-1.2-.7,0-1.3,0-1.9.3,0,.3.1.5.3.7-.5.2-.9.3-1.3.1Z"/>
    <path class="st2" d="M126.2,266.5c-.5-.9-1.5-6.3-3-5.1,6.9,12.7,2.3,29.4-9.6,37.4-3.5,2.1-7.8,5.6-12,3.2,2.7-10.3,15.5-6,18.2-25.6-.3-.2-.5-.3-.8-.3-.4,2.7-1.1,5.4-2.1,7.9,1.1-2.9.4-12.1.6-12.6-.1-.1-.2-.2-.6-.7,0,1.1,0,1.5,0,3h-19.4v-20h19.1v11.3c0,.3,0,.5.1.8.3-.4.3-.4.5-.5v-12.2h-40v10.2s.6,0,.6,0v-9.7h19.2v20.1h-18.5c0,0,0-.3,0-.3,0,0-.1.3-.1.3h-.5v-1.5h-.6c-.4,1.5.8,14.1,2.9,16.3-4.2-4-5.5-11.1-4.7-16.5,0,0-.4-.3-.8-.7-1.3,7.6,1.6,15,6.9,20.4.5.5,1,0,1.5-.2-.1-.1-.4-.3-.5-.5l.5.5-.3-.8c-4.2-3.2-4.9-12.2-5-16.4h19.2s0,25.1,0,25.2c-4.1-.2-6.8-4.6-10.8-4.6,5.7,3.3,16,11.3,22.5,7.8h0c-.7,1-3.1,2.6-4.2,2.2-1.8-1.1-4.5.9-3.3,2.8.2.2.3.4,0,.7-7.1-.7-13.4-4.8-19.4-8.4h-.1c2.3,3.2,10.4,7,10.4,7v4.5l.9.6v-4.9c2.1.7,6.5,2.1,6.5,2.1v3.1s.8-.5.8-.5v-2.3s1.1-.3,1.1-.3c.7-.2,1.2-.9,1.1-1.6-.4-.2-.6-.6-.5-1,.2-.9,1.3-.9,1.7-.4.9.4,1.7-.7,2.6-.9,1.2-.7,2.7-1.4,3.3-2.8.1-.3.3-.6.6-.7,2.5-1.3,4.8-3,6.9-4.9,8.7-7.2,11.7-19.7,8.8-30.3h0ZM97.5,274.4h19.4c1.6,14.7-7.1,19.6-19.4,24.7v-24.7h0ZM97.9,300.6c1.1-1.1,2.6-1.8,4.1-2.1l-1.5,3.2-2.6-1.2h0ZM54.6,308.7c-.4-.3-1-.3-1.6-.2.1,1,.5,2.8.8,3.7,1.8-.3,2.4-2.5.9-3.5Z"/>
    <path class="st2" d="M79.5,302c-11,0-21.9,4.7-32.9,4.7s-2.6,0-4-.2c3.4,2.7,3.2,8,8.1,8h.7c6.7-.7,13.4-2.6,20.1-3.7,1.1-.2,6.6-1.5,9.8-1.5s2,.2,2.3.6c.3.6-1.8,2.4-1.8,2.5,0,0,0,0,0,0,.2,0,1.4-.7,2.3-1.3,3.6-2.6-3.9-9.2-4.6-9.2ZM56.4,311c-.6,1.4-2.4,1.7-3.8,2,0-.4-.8-4.5-1-4.9,2.4-1,5.9,0,4.8,2.9ZM57.8,311.9c0-1.7-.3-3.4-1-4.9l1.4-.3c0,1.7.3,3.3,1,4.9,0,0-1.4.3-1.4.3ZM63.2,310.7l-2.9.6c0-.4-.9-4.4-1.1-4.8l3-.7-.2,1c-.4-.1-.9-.1-1.5,0l.3,1.4,1.7-.4.3.7c-.3,0-1.3.2-1.8.3l.3,1.5c.8-.2,1.5-.5,2-.8h0l-.2,1.1h0ZM66.1,310.3c-2.1,0-2.4-2.9-2.9-4.4l1-.2c.5,1.3.3,4.3,2.5,3.9,1.6-.7.3-3.1.1-4.3h1c.4,1.8,1.3,5.2-1.8,5h0ZM74.5,308.8l-2.9.7c0-.4-.9-4.4-1.2-4.8l3-.7-.2,1c-.4-.1-.9-.1-1.5,0l.3,1.5,1.7-.4.3.7c-.3,0-1.3.2-1.8.3l.4,1.5c.8-.2,1.5-.5,2-.8h0s-.2,1.1-.2,1.1ZM77.5,304l.8,4.1-1,.2-.8-4.1c-.6.1-.9.1-1.7.4v-.9s4.1-.5,4.1-.5l.3.8c-.6,0-1.1,0-1.7,0h0ZM130.4,306.6c-.2.9-.6,2.6-.7,3.5,2.2.5,2.8-3.1.7-3.5ZM138.9,308.1c-1.6-.4-2.2,3-.8,3.5,1.7.4,2.2-3,.8-3.5h0ZM134.6,307.4l-.5,1.8c1.4.3,2-1.6.5-1.8ZM121.4,304.8c-1.7-.5-2.4,3.1-.9,3.6,1.8.5,2.4-3,.9-3.6Z"/>
    <path class="st2" d="M145.9,306.7c-1.4,0-2.7,0-3.3,0-7.3-.7-14.4-2.7-21.6-3.9-2.1-.3-3.8-.6-5.3-.6-3.1,0-5.2,1.3-7.6,6.5-1,2,2.5,3.9,3.3,4-2.9-2.5-1.9-3.2.4-3.2s8.8,1.4,9.9,1.5c6.6,1,13.3,2.9,20.1,3.6h.7c4.9,0,4.7-5.3,8.1-8-.6,0-2.6,0-4.5,0h0ZM118.7,303.8c-.2.1-.7,4.2-.7,4.6l-1.1-.2c.2-.3.5-3.2.5-3.2l-1.9,2.9-1.1-3.3s-.4,2.4-.5,3.1h-1.1c.3-.7,1-4.9,1-4.9l1.1.2c0,.2.9,3.1.9,3.1,0,0,1.5-2.5,1.6-2.6l1.3.2h0ZM122.8,307.4c-1,3.3-4.9,1.5-3.7-1.5,1-3.2,4.9-1.5,3.7,1.5ZM126.6,310.3c-.3,0-2.2-3.8-2.2-3.8,0,0-.4,2.9-.6,3.1h-.8c0-.1,1-4.6,1-4.6h.9c0,.2,1.5,3.3,1.5,3.3l.5-2.7.7.2s-1,4.5-1,4.5ZM130.9,310.7c-.7.2-1.6,0-2.3-.2l.9-4.7c3.1-.2,4.3,3.7,1.4,4.8ZM136.3,308.6c-.1.5-.5.9-1.2,1.1.3.9.4,1.2.9,2.2h0s-.7,0-.7,0c-.5-.6-1-1.3-1.4-2.1-.2.6-.3,1.3-.3,1.8l-1.3-.2c.2-.4,1.2-4.2,1.2-4.6,1.1.1,3,.3,2.7,1.8ZM138.8,312.2c-2.8.5-2.8-4.1-.6-4.8,2.8-.6,2.8,4.2.5,4.8h0ZM141.7,309.5c-.1.8-.5,2.5-.3,3.3l-1.1-.2c.5-1.2.8-3.3.7-4.6h1.1c-.2.5-.3,1-.4,1.5ZM144.2,309.3s-.6,3.6-.6,3.9l-1.1-.2s.7-3.1.8-3.8c-.4,0-.9,0-1.3.1h0l.4-.9,2.9.5.2,1c-.4-.3-.9-.5-1.5-.6Z"/>
  </g>
</svg>