<?xml version="1.0" encoding="UTF-8"?>
<svg id="Layer_1" xmlns="http://www.w3.org/2000/svg" version="1.1" viewBox="0 0 1253 636">
  <!-- Generator: Adobe Illustrator 29.8.7, SVG Export Plug-In . SVG Version: 2.1.1 Build 1)  -->
  <defs>
    <style>
      .st0 {
        fill: #cfe4dc;
      }

      .st1 {
        fill: #d2e2f1;
      }

      .st2 {
        fill: #484949;
      }

      .st3 {
        fill: #083d29;
      }

      .st4 {
        fill: #0f385c;
      }

      .st5 {
        fill: #f3f3f3;
      }
    </style>
  </defs>
  <path class="st4" d="M1.5,86.8h1237.4v103.5H1.5v-103.5Z"/>
  <path class="st2" d="M1.5,228h1237.4v103.5H1.5v-103.5Z"/>
  <path class="st3" d="M1.5,369.2h1237.4v103.5H1.5v-103.5Z"/>
  <path class="st1" d="M6.5,86.8h1237.4v103.5H6.5v-103.5Z"/>
  <path class="st4" d="M47.6,125.8h8.8c1.2,0,2.2.2,3.2.6,1,.4,1.8.9,2.4,1.6.7.7,1.2,1.5,1.6,2.5.4,1,.6,2,.6,3.2s-.2,2.2-.6,3.2c-.4,1-1,1.8-1.7,2.5-.7.7-1.6,1.2-2.6,1.6-1,.4-2.1.6-3.2.6h-5.4v9.3h-3.1v-25ZM60.9,133.6c0-.7-.1-1.4-.3-2-.2-.6-.6-1.2-1-1.6-.4-.5-1-.8-1.6-1.1-.6-.3-1.3-.4-2.1-.4h-5.1v10.4h5.1c.8,0,1.5-.1,2.1-.4.6-.3,1.2-.6,1.6-1,.4-.5.8-1,1-1.6.2-.6.3-1.3.3-2v-.2ZM77.2,135.6h-.5c-.8,0-1.5,0-2.2.3-.7.2-1.3.5-1.8.9-.5.5-.9,1.1-1.3,1.9-.3.8-.5,1.8-.5,3v9.2h-2.9v-17.8h2.9v2.8c.2-.5.5-1,.9-1.4.4-.4.8-.7,1.3-1,.5-.3,1-.5,1.5-.6.5-.1,1.1-.2,1.7-.2h.9v2.9ZM83.6,150.8h-2.9v-17.8h2.9v17.8ZM80.1,127.8c0-.3,0-.5.2-.8.1-.2.3-.5.4-.6.2-.2.4-.3.6-.4.3-.1.5-.2.8-.2s.5,0,.8.2c.2.1.5.3.6.4.2.2.3.4.4.6.1.2.2.5.2.8s0,.5-.2.8c-.1.2-.3.5-.4.6-.2.2-.4.3-.6.4-.2.1-.5.2-.8.2s-.5,0-.8-.2c-.2-.1-.5-.3-.6-.4-.2-.2-.3-.4-.4-.6-.1-.3-.2-.5-.2-.8ZM102.3,150.8h-2.9v-11.2c0-.8,0-1.5-.3-2-.2-.5-.4-1-.8-1.3-.3-.3-.7-.6-1.1-.7-.4-.2-.9-.2-1.4-.2s-1,0-1.4.3c-.5.2-.9.5-1.3.9-.4.4-.7.9-.9,1.6-.2.6-.3,1.4-.3,2.2v10.5h-2.9v-17.8h2.9v2c.6-.8,1.3-1.4,2.1-1.8.8-.4,1.7-.6,2.6-.6s.8,0,1.3.2c.5.1.9.3,1.4.5.5.2.9.5,1.2.9.4.4.7.8.9,1.4.3-.5.7-1,1.1-1.4.4-.4.9-.7,1.3-.9.5-.2,1-.4,1.5-.5.5-.1,1-.2,1.5-.2,1,0,1.8.2,2.6.5.7.3,1.4.8,1.9,1.3.5.5.9,1.2,1.2,1.9.3.7.4,1.5.4,2.3v12.2h-2.9v-11.2c0-.8,0-1.5-.3-2-.2-.5-.5-1-.8-1.3-.3-.3-.7-.6-1.2-.7-.4-.2-.9-.2-1.4-.2s-1,0-1.4.3c-.5.2-.9.5-1.3.9-.4.4-.7.9-.9,1.6-.2.6-.3,1.4-.3,2.2v10.5ZM128.2,149.1c-.5.6-1.2,1.1-2.1,1.5-.9.4-1.9.6-3.1.6s-1.7-.1-2.5-.4c-.8-.3-1.4-.6-2-1.1-.6-.5-1-1-1.3-1.7-.3-.7-.5-1.4-.5-2.3s.1-1.3.3-1.9c.2-.6.6-1.1,1-1.5.4-.4.9-.8,1.5-1,.6-.3,1.2-.5,2-.6l6.3-.9v-1.1c0-.7-.1-1.2-.3-1.7-.2-.5-.5-.8-.9-1.1-.3-.3-.8-.5-1.3-.6-.5-.1-1-.2-1.6-.2-1,0-1.9.1-2.8.4-.9.3-1.6.6-2.3,1l-1.1-2.3c1-.6,2.1-1,3.2-1.3,1.1-.3,2.2-.4,3.3-.4,2.2,0,3.8.5,4.9,1.5,1.1,1,1.7,2.4,1.7,4.3v8.2c0,.6.1,1.1.3,1.5.2.4.6.7,1.1.9l-1.7,2.1c-.6-.1-1-.4-1.4-.7-.4-.4-.7-.8-.8-1.3h0ZM123,142.9c-.5,0-.9.2-1.3.3-.4.1-.7.3-1,.5-.3.2-.5.5-.7.8-.2.3-.2.7-.2,1.2s0,1,.3,1.4c.2.4.5.8.8,1,.3.3.7.5,1.2.6.5.1.9.2,1.4.2s1.1,0,1.6-.2c.5-.2,1-.4,1.4-.6.4-.3.7-.6,1-1,.3-.4.4-.9.4-1.4v-3.4l-4.8.7ZM145.2,135.6h-.5c-.8,0-1.5,0-2.2.3s-1.3.5-1.8.9c-.5.5-.9,1.1-1.3,1.9-.3.8-.5,1.8-.5,3v9.2h-2.9v-17.8h2.9v2.8c.2-.5.5-1,.9-1.4.4-.4.8-.7,1.3-1,.5-.3,1-.5,1.5-.6.5-.1,1.1-.2,1.7-.2h.9v2.9ZM146.7,133h3.3l4.4,14.7,4.2-14.7h3.3l-6.5,20.5c-.2.6-.5,1.1-.8,1.5-.3.4-.7.7-1.1,1-.4.2-.8.4-1.3.5-.5,0-1,.1-1.6.1s-1,0-1.5,0c-.5,0-1.1-.1-1.7-.2l.4-2.6c.2,0,.5,0,.8.1.2,0,.5,0,.8,0,.3,0,.6,0,.9,0,.6,0,1.1-.1,1.5-.4.4-.3.6-.7.8-1.4l.2-.8-6-18.5ZM182.6,149.1c-.5.6-1.2,1.1-2.1,1.5-.9.4-1.9.6-3.1.6s-1.7-.1-2.5-.4c-.8-.3-1.4-.6-2-1.1-.6-.5-1-1-1.3-1.7-.3-.7-.5-1.4-.5-2.3s.1-1.3.3-1.9c.2-.6.6-1.1,1-1.5.4-.4.9-.8,1.5-1,.6-.3,1.2-.5,2-.6l6.3-.9v-1.1c0-.7-.1-1.2-.3-1.7-.2-.5-.5-.8-.9-1.1-.3-.3-.8-.5-1.3-.6-.5-.1-1-.2-1.6-.2-1,0-1.9.1-2.8.4-.9.3-1.6.6-2.3,1l-1.1-2.3c1-.6,2.1-1,3.2-1.3,1.1-.3,2.2-.4,3.3-.4,2.2,0,3.8.5,4.9,1.5,1.1,1,1.7,2.4,1.7,4.3v8.2c0,.6.1,1.1.3,1.5.2.4.6.7,1.1.9l-1.7,2.1c-.6-.1-1-.4-1.4-.7-.4-.4-.7-.8-.8-1.3h0ZM177.4,142.9c-.5,0-.9.2-1.3.3-.4.1-.7.3-1,.5-.3.2-.5.5-.7.8-.2.3-.2.7-.2,1.2s0,1,.3,1.4c.2.4.5.8.8,1,.3.3.7.5,1.2.6.5.1.9.2,1.4.2s1.1,0,1.6-.2c.5-.2,1-.4,1.4-.6.4-.3.7-.6,1-1,.3-.4.4-.9.4-1.4v-3.4l-4.8.7ZM190.3,125.8h2.9v21c0,.3,0,.5,0,.8,0,.2.2.4.3.6.1.2.3.3.5.3.2,0,.5.1.9.1s.7,0,1,0c.3,0,.6,0,.8,0l.3,2.5c-.3,0-.7,0-1,.1-.3,0-.6,0-1,0-.3,0-.7,0-1,0-.5,0-1,0-1.5-.2-.5-.1-.9-.3-1.2-.6-.3-.3-.6-.6-.8-1.1-.2-.4-.3-1-.3-1.6v-21.9ZM201.9,142.8c0,.8.2,1.6.5,2.3.3.7.7,1.3,1.1,1.9.5.5,1.1.9,1.7,1.2.7.3,1.4.4,2.2.4s1.9-.2,2.6-.5c.8-.3,1.5-.8,2.1-1.3l1.5,2.1c-.8.6-1.7,1.2-2.8,1.6-1,.4-2.2.6-3.5.6s-2.5-.2-3.5-.7c-1-.5-1.9-1.1-2.7-1.9-.7-.8-1.3-1.8-1.7-2.9-.4-1.1-.6-2.4-.6-3.7s.2-2.6.6-3.7c.4-1.1.9-2.1,1.7-2.9.7-.8,1.6-1.5,2.5-1.9,1-.5,2.1-.7,3.3-.7s2.2.2,3.2.7c.9.5,1.7,1.1,2.4,1.9.7.8,1.2,1.8,1.5,2.9.4,1.1.5,2.4.5,3.7v.9h-12.7ZM206.8,135.2c-.7,0-1.4.1-2,.4-.6.3-1.1.7-1.5,1.2-.4.5-.7,1.1-1,1.7-.2.6-.4,1.3-.4,2h9.4c0-.7-.1-1.3-.4-2-.2-.6-.5-1.2-.9-1.7-.4-.5-.9-.9-1.4-1.2-.5-.3-1.2-.4-1.9-.4ZM227.8,135.6h-.5c-.8,0-1.5,0-2.2.3s-1.3.5-1.8.9c-.5.5-.9,1.1-1.3,1.9-.3.8-.5,1.8-.5,3v9.2h-2.9v-17.8h2.9v2.8c.2-.5.5-1,.9-1.4.4-.4.8-.7,1.3-1,.5-.3,1-.5,1.5-.6.5-.1,1.1-.2,1.7-.2h.9v2.9ZM235.9,146.4c0,.3,0,.6,0,.9,0,.3.1.5.3.7.2.2.4.4.7.5.3.1.7.2,1.2.2s.3,0,.5,0c.2,0,.4,0,.6,0,.2,0,.4,0,.6,0,.2,0,.4,0,.5,0l.3,2.6c-.3,0-.7,0-1,.1-.3,0-.6,0-1,0s-.7,0-1.1,0c-.7,0-1.3,0-1.9-.2-.6-.1-1-.4-1.4-.7-.4-.3-.7-.8-.9-1.3-.2-.5-.3-1.2-.3-1.9v-11.5h-3.4v-2.6h3.4v-5.8l2.9-1v6.9h5v2.6h-5v10.8Z"/>
  <path class="st5" d="M6.5,228h1237.4v103.5H6.5v-103.5Z"/>
  <path class="st2" d="M47.6,286.2c1.1,1.2,2.3,2.1,3.5,2.7,1.3.5,2.6.8,4,.8s1.8-.1,2.5-.3c.8-.2,1.4-.6,1.9-1,.5-.4.9-.9,1.2-1.4.3-.5.4-1.1.4-1.7s-.2-1.5-.5-2c-.3-.5-.8-.9-1.4-1.2-.6-.3-1.2-.6-2-.8-.7-.2-1.5-.4-2.3-.5h-.3c-.5-.2-1.1-.3-1.7-.4-.6-.1-1.2-.3-1.7-.5-.6-.2-1.1-.4-1.7-.7-.5-.3-1-.6-1.4-1-.5-.5-1-1.1-1.4-1.8-.3-.7-.5-1.6-.5-2.7s.2-1.5.5-2.4c.3-.8.9-1.6,1.6-2.2.7-.7,1.7-1.2,2.8-1.7,1.1-.4,2.5-.6,4.1-.6s3.4.3,4.9,1c.6.3,1.2.6,1.8,1,.6.4,1.1.8,1.7,1.4l-2.3,1.9c-.9-.9-1.8-1.5-3-1.9-1.1-.4-2.2-.6-3.4-.6s-1.6,0-2.3.3c-.7.2-1.3.5-1.7.9-.5.4-.9.8-1.1,1.3-.3.5-.4,1-.4,1.6s.2,1.4.5,1.9c.3.5.8.9,1.4,1.2.6.3,1.2.5,1.9.7.7.2,1.4.3,2.1.5h.2c1.2.3,2.3.5,3.4.9,1.1.3,2,.7,2.8,1.3.8.5,1.5,1.2,2,2,.5.8.7,1.9.7,3.2s-.2,1.8-.6,2.7c-.4.9-1,1.7-1.7,2.4-.8.7-1.7,1.2-2.9,1.7-1.2.4-2.5.6-4.1.6s-2.3-.1-3.4-.4c-1-.3-2-.6-2.8-1-.6-.3-1.3-.7-1.9-1.2-.6-.4-1.2-1-1.8-1.6l2.4-2ZM70.4,284c0,.8.2,1.6.5,2.3.3.7.7,1.3,1.1,1.9.5.5,1.1.9,1.7,1.2.7.3,1.4.4,2.2.4s1.9-.2,2.6-.5c.8-.3,1.4-.8,2.1-1.3l1.5,2.1c-.8.6-1.7,1.2-2.8,1.6-1,.4-2.2.6-3.5.6s-2.5-.2-3.5-.7c-1-.5-1.9-1.1-2.7-1.9-.7-.8-1.3-1.8-1.7-2.9-.4-1.1-.6-2.4-.6-3.7s.2-2.6.6-3.7c.4-1.1.9-2.1,1.7-2.9.7-.8,1.6-1.5,2.5-1.9,1-.5,2.1-.7,3.3-.7s2.2.2,3.2.7c.9.5,1.7,1.1,2.4,1.9.7.8,1.2,1.8,1.5,2.9.4,1.1.5,2.4.5,3.7v.9h-12.7ZM75.3,276.4c-.7,0-1.4.1-2,.4-.6.3-1.1.7-1.5,1.2-.4.5-.7,1.1-1,1.7-.2.6-.4,1.3-.4,2h9.4c0-.7-.1-1.3-.4-2-.2-.6-.5-1.2-.9-1.7-.4-.5-.9-.9-1.4-1.2-.5-.3-1.2-.4-1.9-.4ZM89.1,283.2c0,.9.1,1.7.3,2.5.2.8.5,1.5,1,2.1.4.6,1,1.1,1.6,1.4.7.4,1.4.5,2.3.5s1.1,0,1.5-.2c.5-.2.9-.4,1.3-.6.4-.3.7-.6,1-.9.3-.4.6-.8.8-1.2l2.4,1.4c-.3.6-.7,1.2-1.2,1.7-.5.5-1,.9-1.6,1.3-.6.4-1.3.6-2,.8-.7.2-1.5.3-2.3.3-1.2,0-2.4-.2-3.4-.7-1-.5-1.9-1.1-2.6-1.9-.7-.8-1.3-1.8-1.7-2.9-.4-1.1-.6-2.4-.6-3.7s.2-2.6.6-3.7c.4-1.1,1-2.1,1.7-2.9.7-.8,1.6-1.5,2.6-1.9,1-.5,2.1-.7,3.4-.7s1.6,0,2.3.3c.7.2,1.4.5,2,.8.6.4,1.1.8,1.6,1.3.5.5.9,1.1,1.2,1.7l-2.4,1.4c-.2-.4-.5-.8-.8-1.2-.3-.4-.6-.7-1-1-.4-.3-.8-.5-1.3-.6-.5-.2-1-.2-1.5-.2-.9,0-1.6.2-2.3.5-.6.4-1.2.8-1.6,1.4-.4.6-.8,1.3-1,2.1-.2.8-.3,1.7-.3,2.6v.2ZM112.6,273.8c1.2,0,2.4.2,3.4.7,1,.5,1.9,1.1,2.6,1.9.7.8,1.3,1.8,1.7,2.9.4,1.1.6,2.4.6,3.7s-.2,2.6-.6,3.7c-.4,1.1-1,2.1-1.7,2.9-.7.8-1.6,1.5-2.6,1.9-1,.5-2.1.7-3.4.7s-2.4-.2-3.4-.7c-1-.5-1.9-1.1-2.6-1.9-.7-.8-1.3-1.8-1.7-2.9-.4-1.1-.6-2.4-.6-3.7s.2-2.6.6-3.7c.4-1.1,1-2.1,1.7-2.9.7-.8,1.6-1.5,2.6-1.9,1-.5,2.1-.7,3.4-.7ZM112.6,289.8c.8,0,1.6-.2,2.2-.5.7-.4,1.2-.8,1.6-1.4.4-.6.8-1.3,1-2.1.2-.8.3-1.6.3-2.5v-.2c0-.9-.1-1.7-.3-2.6-.2-.8-.6-1.5-1-2.1-.4-.6-1-1.1-1.6-1.4-.6-.4-1.4-.5-2.2-.5s-1.6.2-2.3.5c-.6.4-1.2.8-1.6,1.4-.4.6-.8,1.3-1,2.1-.2.8-.3,1.7-.3,2.6v.2c0,.9.1,1.7.3,2.5.2.8.5,1.5,1,2.1.4.6,1,1.1,1.6,1.4.7.4,1.4.5,2.3.5ZM125.1,274.2h2.9v2c.6-.8,1.4-1.4,2.2-1.8.9-.4,1.9-.6,3-.6s1.9.2,2.6.5c.7.3,1.4.8,1.9,1.3.5.6.9,1.2,1.1,1.9.3.7.4,1.5.4,2.3v12.1h-2.9v-11.2c0-.8,0-1.4-.3-2-.2-.6-.4-1-.8-1.3-.3-.3-.7-.6-1.2-.8-.4-.2-.9-.2-1.4-.2s-1.1.1-1.7.3c-.5.2-1,.5-1.5.9-.4.4-.8.9-1,1.5-.3.6-.4,1.3-.4,2.2v10.6h-2.9v-17.8ZM156.2,290c-.5.7-1.2,1.3-2.1,1.7-.9.4-1.9.6-3.1.6s-2.2-.2-3.1-.7c-.9-.5-1.7-1.1-2.4-1.9-.7-.8-1.2-1.8-1.5-2.9-.3-1.1-.5-2.4-.5-3.7s.2-2.6.5-3.7c.4-1.1.9-2.1,1.5-2.9.7-.8,1.5-1.5,2.4-1.9.9-.5,2-.7,3.1-.7s2.2.2,3.1.6c.9.4,1.6,1,2.1,1.7v-9.2h2.9v25h-2.9v-2ZM146.5,283.2c0,.9.1,1.8.3,2.6.2.8.5,1.5,1,2.1.4.6,1,1,1.6,1.4.6.3,1.4.5,2.2.5s1.5-.1,2-.4c.6-.3,1.1-.6,1.5-1.1.4-.5.7-1,.9-1.6.2-.6.3-1.3.3-2.1v-2.9c0-.7,0-1.4-.3-2.1-.2-.6-.5-1.2-.9-1.7-.4-.5-.9-.8-1.5-1.1-.6-.3-1.3-.4-2-.4s-1.6.2-2.2.5c-.6.3-1.2.8-1.6,1.4-.4.6-.8,1.3-1,2.1-.2.8-.3,1.7-.3,2.6v.2ZM174.7,290.3c-.5.6-1.2,1.1-2.1,1.5-.9.4-1.9.6-3.1.6s-1.7-.1-2.5-.4c-.8-.3-1.4-.6-2-1.1-.6-.5-1-1-1.3-1.7-.3-.7-.5-1.4-.5-2.3s.1-1.3.3-1.9c.2-.6.6-1.1,1-1.5.4-.4.9-.8,1.5-1,.6-.3,1.2-.5,2-.6l6.3-.9v-1.1c0-.7-.1-1.2-.3-1.7-.2-.5-.5-.8-.9-1.1-.3-.3-.8-.5-1.3-.6-.5-.1-1-.2-1.6-.2-1,0-1.9.1-2.8.4-.9.3-1.6.6-2.3,1l-1.1-2.3c1-.6,2.1-1,3.2-1.3,1.1-.3,2.2-.4,3.3-.4,2.2,0,3.8.5,4.9,1.5,1.1,1,1.7,2.4,1.7,4.3v8.2c0,.6.1,1.1.3,1.5.2.4.6.7,1.1.9l-1.7,2.1c-.6-.1-1-.4-1.4-.7-.4-.4-.7-.8-.8-1.3h0ZM169.5,284.1c-.5,0-.9.2-1.3.3-.4.1-.7.3-1,.5-.3.2-.5.5-.7.8-.2.3-.2.7-.2,1.2s0,1,.3,1.4c.2.4.5.8.8,1,.3.3.7.5,1.2.6.5.1.9.2,1.4.2s1.1,0,1.6-.2c.5-.2,1-.4,1.4-.6.4-.3.7-.6,1-1,.3-.4.4-.9.4-1.4v-3.4l-4.8.7ZM191.7,276.8h-.5c-.8,0-1.5,0-2.2.3-.7.2-1.3.5-1.8.9-.5.5-.9,1.1-1.3,1.9-.3.8-.5,1.8-.5,3v9.2h-2.9v-17.8h2.9v2.8c.2-.5.5-1,.9-1.4.4-.4.8-.7,1.3-1,.5-.3,1-.5,1.5-.6.5-.1,1.1-.2,1.7-.2h.9v2.9ZM193.1,274.2h3.3l4.4,14.7,4.2-14.7h3.3l-6.5,20.5c-.2.6-.5,1.1-.8,1.5-.3.4-.7.7-1.1,1-.4.2-.8.4-1.3.5-.5,0-1,.1-1.6.1s-1,0-1.5,0c-.5,0-1.1-.1-1.7-.2l.4-2.6c.2,0,.5,0,.8.1.2,0,.5,0,.8,0,.3,0,.6,0,.9,0,.6,0,1.1-.1,1.5-.4.4-.3.6-.7.8-1.4l.2-.8-6-18.5ZM229.1,290.3c-.5.6-1.2,1.1-2.1,1.5-.9.4-1.9.6-3.1.6s-1.7-.1-2.5-.4c-.8-.3-1.4-.6-2-1.1-.6-.5-1-1-1.3-1.7-.3-.7-.5-1.4-.5-2.3s.1-1.3.3-1.9c.2-.6.6-1.1,1-1.5.4-.4.9-.8,1.5-1,.6-.3,1.2-.5,2-.6l6.3-.9v-1.1c0-.7-.1-1.2-.3-1.7-.2-.5-.5-.8-.9-1.1-.4-.3-.8-.5-1.3-.6-.5-.1-1-.2-1.6-.2-1,0-1.9.1-2.8.4-.9.3-1.6.6-2.3,1l-1.1-2.3c1-.6,2.1-1,3.2-1.3,1.1-.3,2.2-.4,3.3-.4,2.2,0,3.8.5,4.9,1.5,1.1,1,1.7,2.4,1.7,4.3v8.2c0,.6.1,1.1.3,1.5.2.4.6.7,1.1.9l-1.7,2.1c-.6-.1-1-.4-1.4-.7-.4-.4-.7-.8-.8-1.3h0ZM223.9,284.1c-.5,0-.9.2-1.3.3-.4.1-.7.3-1,.5-.3.2-.5.5-.7.8-.2.3-.2.7-.2,1.2s0,1,.3,1.4c.2.4.5.8.8,1,.3.3.7.5,1.2.6.5.1.9.2,1.4.2s1.1,0,1.6-.2c.5-.2,1-.4,1.4-.6.4-.3.7-.6,1-1,.3-.4.4-.9.4-1.4v-3.4l-4.8.7ZM236.8,267h2.9v21c0,.3,0,.5,0,.8,0,.2.2.4.3.6.1.2.3.3.5.3.2,0,.5.1.9.1s.7,0,1,0c.3,0,.6,0,.8,0l.3,2.5c-.3,0-.7,0-1,.1-.3,0-.6,0-1,0-.4,0-.7,0-1,0-.5,0-1,0-1.5-.2-.5-.1-.9-.3-1.2-.6-.3-.3-.6-.6-.8-1.1-.2-.4-.3-1-.3-1.6v-21.9ZM248.4,284c0,.8.2,1.6.5,2.3.3.7.7,1.3,1.1,1.9.5.5,1.1.9,1.7,1.2.7.3,1.4.4,2.2.4s1.9-.2,2.6-.5c.8-.3,1.4-.8,2.1-1.3l1.5,2.1c-.8.6-1.7,1.2-2.8,1.6-1,.4-2.2.6-3.5.6s-2.5-.2-3.5-.7c-1-.5-1.9-1.1-2.7-1.9-.7-.8-1.3-1.8-1.7-2.9-.4-1.1-.6-2.4-.6-3.7s.2-2.6.6-3.7c.4-1.1.9-2.1,1.7-2.9.7-.8,1.6-1.5,2.5-1.9,1-.5,2.1-.7,3.3-.7s2.2.2,3.2.7c.9.5,1.7,1.1,2.4,1.9.7.8,1.2,1.8,1.5,2.9.4,1.1.5,2.4.5,3.7v.9h-12.7ZM253.3,276.4c-.7,0-1.4.1-2,.4-.6.3-1.1.7-1.5,1.2-.4.5-.7,1.1-1,1.7-.2.6-.4,1.3-.4,2h9.4c0-.7-.1-1.3-.4-2-.2-.6-.5-1.2-.9-1.7-.4-.5-.9-.9-1.4-1.2-.5-.3-1.2-.4-1.9-.4ZM274.3,276.8h-.5c-.8,0-1.5,0-2.2.3-.7.2-1.3.5-1.8.9-.5.5-.9,1.1-1.3,1.9-.3.8-.5,1.8-.5,3v9.2h-2.9v-17.8h2.9v2.8c.2-.5.5-1,.9-1.4.4-.4.8-.7,1.3-1,.5-.3,1-.5,1.5-.6.5-.1,1.1-.2,1.7-.2h.9v2.9ZM282.4,287.6c0,.3,0,.6,0,.9,0,.3.1.5.3.7.2.2.4.4.7.5.3.1.7.2,1.2.2s.3,0,.5,0c.2,0,.4,0,.6,0,.2,0,.4,0,.6,0,.2,0,.4,0,.5,0l.3,2.6c-.3,0-.7,0-1,.1-.3,0-.6,0-1,0s-.7,0-1.1,0c-.7,0-1.3,0-1.9-.2-.6-.1-1-.4-1.4-.7-.4-.3-.7-.8-.9-1.3-.2-.5-.3-1.2-.3-1.9v-11.5h-3.4v-2.6h3.4v-5.8l2.9-1v6.9h5v2.6h-5v10.8Z"/>
  <path class="st0" d="M6.5,369.2h1237.4v103.5H6.5v-103.5Z"/>
  <path class="st3" d="M47.6,427.4c1.1,1.2,2.3,2.1,3.5,2.7,1.3.5,2.6.8,4,.8s1.8-.1,2.5-.3c.8-.2,1.4-.6,1.9-1,.5-.4.9-.9,1.2-1.4.3-.5.4-1.1.4-1.7s-.2-1.5-.5-2c-.3-.5-.8-.9-1.4-1.2-.6-.3-1.2-.6-2-.8-.7-.2-1.5-.4-2.3-.5h-.3c-.5-.2-1.1-.3-1.7-.4-.6-.1-1.2-.3-1.7-.5-.6-.2-1.1-.4-1.7-.7-.5-.3-1-.6-1.4-1-.5-.5-1-1.1-1.4-1.8-.3-.7-.5-1.6-.5-2.7s.2-1.5.5-2.4c.3-.8.9-1.6,1.6-2.2.7-.7,1.7-1.2,2.8-1.7,1.1-.4,2.5-.6,4.1-.6s3.4.3,4.9,1c.6.3,1.2.6,1.8,1,.6.4,1.1.8,1.7,1.4l-2.3,1.9c-.9-.9-1.8-1.5-3-1.9-1.1-.4-2.2-.6-3.4-.6s-1.6,0-2.3.3c-.7.2-1.3.5-1.7.9-.5.4-.9.8-1.1,1.3-.3.5-.4,1-.4,1.6s.2,1.4.5,1.9c.3.5.8.9,1.4,1.2.6.3,1.2.5,1.9.7.7.2,1.4.3,2.1.5h.2c1.2.3,2.3.5,3.4.9,1.1.3,2,.7,2.8,1.3.8.5,1.5,1.2,2,2,.5.8.7,1.9.7,3.2s-.2,1.8-.6,2.7c-.4.9-1,1.7-1.7,2.4-.8.7-1.7,1.2-2.9,1.7-1.2.4-2.5.6-4.1.6s-2.3-.1-3.4-.4c-1-.3-2-.6-2.8-1-.6-.3-1.3-.7-1.9-1.2-.6-.4-1.2-1-1.8-1.6l2.4-2ZM82.4,433.2h-2.9v-2c-.6.8-1.4,1.4-2.3,1.8-.9.4-1.9.6-3,.6s-1.9-.2-2.6-.5c-.7-.3-1.4-.8-1.9-1.3-.5-.6-.9-1.2-1.1-1.9-.2-.7-.4-1.5-.4-2.3v-12.1h2.9v11.2c0,.8,0,1.5.3,2,.2.5.5,1,.8,1.3.3.3.7.6,1.2.8.5.2.9.2,1.4.2s1.2,0,1.7-.3c.6-.2,1-.5,1.5-.9.4-.4.8-.9,1-1.5.3-.6.4-1.3.4-2.2v-10.6h2.9v17.8ZM89.7,424.4c0,.9.1,1.7.3,2.5s.5,1.5,1,2.1c.4.6,1,1.1,1.6,1.4.7.4,1.4.5,2.3.5s1.1,0,1.5-.2c.5-.2.9-.4,1.3-.6.4-.3.7-.6,1-.9.3-.4.6-.8.8-1.2l2.4,1.4c-.3.6-.7,1.2-1.2,1.7-.5.5-1,.9-1.6,1.3-.6.4-1.3.6-2,.8-.7.2-1.5.3-2.3.3-1.2,0-2.4-.2-3.4-.7-1-.5-1.9-1.1-2.6-1.9-.7-.8-1.3-1.8-1.7-2.9-.4-1.1-.6-2.4-.6-3.7s.2-2.6.6-3.7c.4-1.1,1-2.1,1.7-2.9.7-.8,1.6-1.5,2.6-1.9,1-.5,2.1-.7,3.4-.7s1.6,0,2.3.3c.7.2,1.4.5,2,.8.6.4,1.1.8,1.6,1.3.5.5.9,1.1,1.2,1.7l-2.4,1.4c-.2-.4-.5-.8-.8-1.2-.3-.4-.6-.7-1-1-.4-.3-.8-.5-1.3-.6-.5-.2-1-.2-1.5-.2-.9,0-1.6.2-2.3.5-.6.4-1.2.8-1.6,1.4-.4.6-.8,1.3-1,2.1-.2.8-.3,1.7-.3,2.6v.2ZM108,424.4c0,.9.1,1.7.3,2.5s.5,1.5,1,2.1c.4.6,1,1.1,1.6,1.4.7.4,1.4.5,2.3.5s1.1,0,1.5-.2c.5-.2.9-.4,1.3-.6.4-.3.7-.6,1-.9.3-.4.6-.8.8-1.2l2.4,1.4c-.3.6-.7,1.2-1.2,1.7-.5.5-1,.9-1.6,1.3-.6.4-1.3.6-2,.8-.7.2-1.5.3-2.3.3-1.2,0-2.4-.2-3.4-.7-1-.5-1.9-1.1-2.6-1.9-.7-.8-1.3-1.8-1.7-2.9-.4-1.1-.6-2.4-.6-3.7s.2-2.6.6-3.7c.4-1.1,1-2.1,1.7-2.9.7-.8,1.6-1.5,2.6-1.9,1-.5,2.1-.7,3.4-.7s1.6,0,2.3.3c.7.2,1.4.5,2,.8.6.4,1.1.8,1.6,1.3.5.5.9,1.1,1.2,1.7l-2.4,1.4c-.2-.4-.5-.8-.8-1.2-.3-.4-.6-.7-1-1-.4-.3-.8-.5-1.3-.6-.5-.2-1-.2-1.5-.2-.9,0-1.6.2-2.3.5-.6.4-1.2.8-1.6,1.4-.4.6-.8,1.3-1,2.1-.2.8-.3,1.7-.3,2.6v.2ZM126.3,425.2c0,.8.2,1.6.5,2.3.3.7.7,1.3,1.1,1.9.5.5,1.1.9,1.7,1.2.7.3,1.4.4,2.2.4s1.9-.2,2.6-.5c.8-.3,1.4-.8,2.1-1.3l1.5,2.1c-.8.6-1.7,1.2-2.8,1.6-1,.4-2.2.6-3.5.6s-2.5-.2-3.5-.7c-1-.5-1.9-1.1-2.7-1.9-.7-.8-1.3-1.8-1.7-2.9-.4-1.1-.6-2.4-.6-3.7s.2-2.6.6-3.7c.4-1.1.9-2.1,1.7-2.9.7-.8,1.6-1.5,2.5-1.9,1-.5,2.1-.7,3.3-.7s2.2.2,3.2.7c.9.5,1.7,1.1,2.4,1.9.7.8,1.2,1.8,1.5,2.9.4,1.1.5,2.4.5,3.7v.9h-12.7ZM131.2,417.6c-.7,0-1.4.1-2,.4-.6.3-1.1.7-1.5,1.2-.4.5-.7,1.1-1,1.7-.2.6-.4,1.3-.4,2h9.4c0-.7-.1-1.3-.4-2-.2-.6-.5-1.2-.9-1.7-.4-.5-.9-.9-1.4-1.2-.5-.3-1.2-.4-1.9-.4ZM155.1,428.3c0,.8-.2,1.6-.6,2.3-.4.7-.8,1.2-1.4,1.7-.6.5-1.3.8-2.1,1-.8.2-1.6.4-2.4.4-1.3,0-2.6-.2-3.8-.7-1.2-.5-2.3-1.1-3.2-1.9l1.6-2.1c.3.2.6.5,1,.8.4.3.8.5,1.2.8.5.2.9.4,1.5.6.5.1,1.1.2,1.7.2s.9,0,1.4-.2c.4-.1.8-.3,1.2-.5.3-.2.6-.5.8-.9.2-.3.3-.7.3-1.1s-.1-.9-.3-1.2c-.2-.3-.5-.6-.8-.8-.3-.2-.8-.4-1.2-.6-.5-.2-1-.3-1.5-.5l-1.1-.4c-.6-.2-1.2-.4-1.8-.7-.6-.3-1.1-.6-1.6-1-.4-.4-.8-.9-1.1-1.4-.3-.5-.4-1.2-.4-1.9s.1-1.2.4-1.8c.3-.6.6-1.1,1.2-1.6.5-.5,1.2-.9,2-1.2.8-.3,1.8-.5,2.9-.5s2.4.2,3.4.6c1,.4,1.9.9,2.7,1.5l-1.5,2.1c-.3-.2-.6-.5-.9-.7-.3-.2-.7-.4-1.1-.6-.4-.2-.8-.3-1.2-.4-.4-.1-.9-.2-1.3-.2-.6,0-1.2,0-1.6.2-.4.1-.8.3-1.1.6-.3.2-.5.5-.6.8-.1.3-.2.6-.2.9,0,.4,0,.7.3,1,.2.3.4.5.7.7.3.2.6.4,1,.5.4.1.8.3,1.2.4l1.5.5c.7.2,1.3.5,1.9.8.6.3,1.1.6,1.5.9.6.4,1,1,1.3,1.5.3.6.5,1.3.5,2.1ZM171.5,428.3c0,.8-.2,1.6-.6,2.3-.4.7-.8,1.2-1.4,1.7-.6.5-1.3.8-2.1,1-.8.2-1.6.4-2.4.4-1.3,0-2.6-.2-3.8-.7-1.2-.5-2.3-1.1-3.2-1.9l1.6-2.1c.3.2.6.5,1,.8.4.3.8.5,1.2.8.5.2.9.4,1.5.6.5.1,1.1.2,1.7.2s.9,0,1.4-.2c.4-.1.8-.3,1.2-.5.3-.2.6-.5.8-.9.2-.3.3-.7.3-1.1s-.1-.9-.3-1.2c-.2-.3-.5-.6-.8-.8-.3-.2-.8-.4-1.2-.6-.5-.2-1-.3-1.5-.5l-1.1-.4c-.6-.2-1.2-.4-1.8-.7-.6-.3-1.1-.6-1.6-1-.4-.4-.8-.9-1.1-1.4-.3-.5-.4-1.2-.4-1.9s.1-1.2.4-1.8c.3-.6.6-1.1,1.2-1.6.5-.5,1.2-.9,2-1.2.8-.3,1.8-.5,2.9-.5s2.4.2,3.4.6c1,.4,1.9.9,2.7,1.5l-1.5,2.1c-.3-.2-.6-.5-.9-.7-.3-.2-.7-.4-1.1-.6-.4-.2-.8-.3-1.2-.4-.4-.1-.9-.2-1.3-.2-.6,0-1.2,0-1.6.2-.4.1-.8.3-1.1.6-.3.2-.5.5-.6.8-.1.3-.2.6-.2.9,0,.4,0,.7.3,1,.2.3.4.5.7.7.3.2.6.4,1,.5.4.1.8.3,1.2.4l1.5.5c.7.2,1.3.5,1.9.8.6.3,1.1.6,1.5.9.6.4,1,1,1.3,1.5.3.6.5,1.3.5,2.1ZM193.3,431.4c-.5.6-1.2,1.1-2.1,1.5-.9.4-1.9.6-3.1.6s-1.7-.1-2.5-.4c-.8-.3-1.4-.6-2-1.1-.6-.5-1-1-1.3-1.7-.3-.7-.5-1.4-.5-2.3s.1-1.3.3-1.9c.2-.6.6-1.1,1-1.5.4-.4.9-.8,1.5-1,.6-.3,1.2-.5,2-.6l6.3-.9v-1.1c0-.7-.1-1.2-.3-1.7-.2-.5-.5-.8-.9-1.1-.3-.3-.8-.5-1.3-.6-.5-.1-1-.2-1.6-.2-1,0-1.9.1-2.8.4-.9.3-1.6.6-2.3,1l-1.1-2.3c1-.6,2.1-1,3.2-1.3,1.1-.3,2.2-.4,3.3-.4,2.2,0,3.8.5,4.9,1.5,1.1,1,1.7,2.4,1.7,4.3v8.2c0,.6.1,1.1.4,1.5.2.4.6.7,1.1.9l-1.7,2.1c-.6-.1-1-.4-1.4-.7-.4-.4-.7-.8-.8-1.3h0ZM188.1,425.3c-.5,0-.9.2-1.3.3-.4.1-.7.3-1,.5-.3.2-.5.5-.7.8-.2.3-.2.7-.2,1.2s0,1,.3,1.4c.2.4.5.8.8,1,.3.3.7.5,1.2.6.5.1.9.2,1.4.2s1.1,0,1.6-.2c.5-.2,1-.4,1.4-.6.4-.3.7-.6,1-1,.3-.4.4-.9.4-1.4v-3.4l-4.8.7ZM201,408.2h2.9v21c0,.3,0,.5,0,.8,0,.2.2.4.3.6.1.2.3.3.5.3.2,0,.5.1.9.1s.7,0,1,0c.3,0,.6,0,.8,0l.3,2.5c-.3,0-.7,0-1,.1-.3,0-.6,0-1,0-.3,0-.7,0-1,0-.5,0-1,0-1.5-.2-.5-.1-.9-.3-1.2-.6-.3-.3-.6-.6-.8-1.1-.2-.4-.3-1-.3-1.6v-21.9ZM212.6,425.2c0,.8.2,1.6.5,2.3.3.7.7,1.3,1.1,1.9.5.5,1.1.9,1.7,1.2.7.3,1.4.4,2.2.4s1.9-.2,2.6-.5c.8-.3,1.4-.8,2.1-1.3l1.5,2.1c-.8.6-1.7,1.2-2.8,1.6-1,.4-2.2.6-3.5.6s-2.5-.2-3.5-.7c-1-.5-1.9-1.1-2.7-1.9-.7-.8-1.3-1.8-1.7-2.9-.4-1.1-.6-2.4-.6-3.7s.2-2.6.6-3.7c.4-1.1.9-2.1,1.7-2.9.7-.8,1.6-1.5,2.6-1.9,1-.5,2.1-.7,3.3-.7s2.2.2,3.2.7c.9.5,1.7,1.1,2.4,1.9.7.8,1.2,1.8,1.5,2.9.4,1.1.5,2.4.5,3.7v.9h-12.7ZM217.5,417.6c-.7,0-1.4.1-2,.4-.6.3-1.1.7-1.5,1.2-.4.5-.7,1.1-1,1.7-.2.6-.4,1.3-.4,2h9.4c0-.7-.1-1.3-.4-2-.2-.6-.5-1.2-.9-1.7-.4-.5-.9-.9-1.4-1.2-.5-.3-1.2-.4-1.9-.4ZM238.5,418h-.5c-.8,0-1.5,0-2.2.3-.7.2-1.3.5-1.8.9-.5.5-.9,1.1-1.3,1.9-.3.8-.5,1.8-.5,3v9.2h-2.9v-17.8h2.9v2.8c.2-.5.5-1,.9-1.4.4-.4.8-.7,1.3-1,.5-.3,1-.5,1.5-.6.5-.1,1.1-.2,1.7-.2h.9v2.9ZM246.6,428.8c0,.3,0,.6,0,.9,0,.3.1.5.3.7.2.2.4.4.7.5.3.1.7.2,1.2.2s.3,0,.5,0c.2,0,.4,0,.6,0,.2,0,.4,0,.6,0,.2,0,.4,0,.5,0l.3,2.6c-.3,0-.7,0-1,.1-.3,0-.6,0-1,0-.4,0-.7,0-1.1,0-.7,0-1.4,0-1.9-.2-.6-.1-1-.4-1.4-.7-.4-.3-.7-.8-.9-1.3-.2-.5-.3-1.2-.3-1.9v-11.5h-3.4v-2.6h3.4v-5.8l2.9-1v6.9h5v2.6h-5v10.8Z"/>
</svg>